<svg xmlns="http://www.w3.org/2000/svg" xmlns:xlink="http://www.w3.org/1999/xlink" width="321" zoomAndPan="magnify" viewBox="0 0 240.75 141.750002" height="189" preserveAspectRatio="xMidYMid meet" version="1.0"><defs><g/><clipPath id="07b2ea1c7d"><path d="M 0.0859375 0 L 240.414062 0 L 240.414062 141.5 L 0.0859375 141.5 Z M 0.0859375 0 " clip-rule="nonzero"/></clipPath><clipPath id="a0cd2ef19e"><path d="M 0.0859375 0 L 240.21875 0 L 240.21875 141.386719 L 0.0859375 141.386719 Z M 0.0859375 0 " clip-rule="nonzero"/></clipPath><clipPath id="7a0cd6d714"><path d="M 58 64 L 185.859375 64 L 185.859375 79 L 58 79 Z M 58 64 " clip-rule="nonzero"/></clipPath><clipPath id="72fa91e039"><path d="M 85 24.355469 L 102 24.355469 L 102 57 L 85 57 Z M 85 24.355469 " clip-rule="nonzero"/></clipPath><clipPath id="f184841da4"><path d="M 54.945312 55 L 87 55 L 87 70 L 54.945312 70 Z M 54.945312 55 " clip-rule="nonzero"/></clipPath><clipPath id="946cba75a4"><rect x="0" width="120" y="0" height="8"/></clipPath><clipPath id="2dfde108f3"><rect x="0" width="241" y="0" height="142"/></clipPath></defs><g clip-path="url(#07b2ea1c7d)"><path fill="#ffffff" d="M 0.0859375 0 L 240.414062 0 L 240.414062 141.5 L 0.0859375 141.5 Z M 0.0859375 0 " fill-opacity="1" fill-rule="nonzero"/><g transform="matrix(1, 0, 0, 1, 0, -0.000000000000007933)"><g clip-path="url(#2dfde108f3)"><g clip-path="url(#a0cd2ef19e)"><path fill="#ffffff" d="M 0.0859375 0 L 240.21875 0 L 240.21875 141.386719 L 0.0859375 141.386719 Z M 0.0859375 0 " fill-opacity="1" fill-rule="nonzero"/></g><g clip-path="url(#7a0cd6d714)"><path fill="#a87f59" d="M 58.902344 77.574219 C 105.46875 42.941406 145.976562 89.289062 185.542969 68.324219 C 157.457031 97.976562 102.757812 50.558594 58.902344 77.574219 " fill-opacity="1" fill-rule="evenodd"/></g><g clip-path="url(#72fa91e039)"><path fill="#a87f59" d="M 87.886719 56.007812 C 86.476562 52.515625 85.699219 48.699219 85.699219 44.699219 C 85.699219 36.859375 88.6875 29.71875 93.585938 24.347656 C 98.484375 29.71875 101.472656 36.859375 101.472656 44.699219 C 101.472656 48.699219 100.695312 52.515625 99.285156 56.007812 C 100.070312 53.507812 100.492188 50.847656 100.492188 48.089844 C 100.492188 41.222656 97.875 34.972656 93.585938 30.269531 C 89.296875 34.972656 86.679688 41.222656 86.679688 48.089844 C 86.679688 50.847656 87.105469 53.507812 87.886719 56.007812 " fill-opacity="1" fill-rule="evenodd"/></g><path fill="#a87f59" d="M 85.160156 59.792969 C 82.191406 57.472656 79.613281 54.558594 77.613281 51.09375 C 73.691406 44.304688 72.707031 36.625 74.265625 29.523438 C 81.195312 31.726562 87.351562 36.417969 91.273438 43.207031 C 93.273438 46.667969 94.507812 50.363281 95.03125 54.09375 C 94.460938 51.535156 93.496094 49.023438 92.117188 46.632812 C 88.683594 40.6875 83.292969 36.578125 77.226562 34.652344 C 75.863281 40.867188 76.722656 47.59375 80.15625 53.539062 C 81.535156 55.925781 83.230469 58.019531 85.160156 59.792969 " fill-opacity="1" fill-rule="evenodd"/><path fill="#a87f59" d="M 83.003906 64.148438 C 79.851562 63.519531 76.746094 62.371094 73.804688 60.675781 C 67.015625 56.753906 62.324219 50.59375 60.125 43.667969 C 67.222656 42.109375 74.902344 43.09375 81.695312 47.015625 C 85.15625 49.011719 88.070312 51.59375 90.390625 54.5625 C 88.617188 52.632812 86.527344 50.9375 84.136719 49.558594 C 78.191406 46.125 71.46875 45.265625 65.253906 46.628906 C 67.179688 52.695312 71.285156 58.085938 77.230469 61.519531 C 79.183594 62.644531 81.21875 63.496094 83.292969 64.082031 C 83.195312 64.101562 83.101562 64.125 83.003906 64.148438 " fill-opacity="1" fill-rule="evenodd"/><g clip-path="url(#f184841da4)"><path fill="#a87f59" d="M 67.902344 69.960938 C 62.996094 68.726562 58.566406 66.292969 54.945312 62.988281 C 60.316406 58.089844 67.457031 55.101562 75.300781 55.101562 C 79.296875 55.101562 83.113281 55.878906 86.605469 57.289062 C 84.105469 56.503906 81.445312 56.082031 78.6875 56.082031 C 71.824219 56.082031 65.570312 58.699219 60.867188 62.988281 C 63.625 65.503906 66.914062 67.441406 70.542969 68.617188 C 69.664062 69.039062 68.785156 69.484375 67.902344 69.960938 " fill-opacity="1" fill-rule="evenodd"/></g><path fill="#a87f59" d="M 92.140625 54.09375 C 92.664062 50.363281 93.902344 46.667969 95.898438 43.207031 C 99.820312 36.417969 105.980469 31.726562 112.90625 29.523438 C 114.464844 36.625 113.480469 44.304688 109.5625 51.09375 C 107.5625 54.558594 104.980469 57.472656 102.011719 59.792969 C 103.941406 58.019531 105.636719 55.925781 107.015625 53.539062 C 110.449219 47.59375 111.308594 40.867188 109.945312 34.652344 C 103.878906 36.578125 98.488281 40.6875 95.054688 46.632812 C 93.675781 49.019531 92.714844 51.535156 92.140625 54.09375 " fill-opacity="1" fill-rule="evenodd"/><path fill="#a87f59" d="M 96.78125 54.5625 C 99.101562 51.59375 102.019531 49.011719 105.480469 47.015625 C 112.269531 43.09375 119.949219 42.109375 127.050781 43.667969 C 124.851562 50.59375 120.160156 56.753906 113.367188 60.675781 C 111.714844 61.628906 110.011719 62.40625 108.277344 63.019531 C 107.921875 62.976562 107.5625 62.9375 107.203125 62.898438 C 108.132812 62.496094 109.046875 62.035156 109.941406 61.519531 C 115.886719 58.085938 119.996094 52.695312 121.921875 46.628906 C 115.707031 45.265625 108.980469 46.125 103.035156 49.558594 C 100.648438 50.9375 98.554688 52.632812 96.78125 54.5625 " fill-opacity="1" fill-rule="evenodd"/><path fill="#a87f59" d="M 100.566406 57.289062 C 104.058594 55.878906 107.875 55.101562 111.875 55.101562 C 119.714844 55.101562 126.859375 58.089844 132.226562 62.988281 C 130.757812 64.328125 129.15625 65.523438 127.449219 66.554688 C 125.96875 66.21875 124.480469 65.882812 122.992188 65.5625 C 124.164062 64.792969 125.273438 63.929688 126.304688 62.988281 C 121.605469 58.699219 115.351562 56.082031 108.484375 56.082031 C 105.726562 56.082031 103.066406 56.503906 100.566406 57.289062 " fill-opacity="1" fill-rule="evenodd"/><path fill="#a87f59" d="M 93.585938 55.757812 C 97.398438 55.757812 100.523438 58.707031 100.796875 62.449219 C 100.378906 62.433594 99.957031 62.425781 99.535156 62.417969 C 99.246094 59.386719 96.695312 57.015625 93.585938 57.015625 C 90.289062 57.015625 87.613281 59.6875 87.613281 62.988281 C 87.613281 63.070312 87.613281 63.148438 87.617188 63.230469 C 87.203125 63.296875 86.785156 63.359375 86.371094 63.4375 C 86.359375 63.289062 86.355469 63.136719 86.355469 62.988281 C 86.355469 58.992188 89.59375 55.757812 93.585938 55.757812 " fill-opacity="1" fill-rule="evenodd"/><path fill="#a87f59" d="M 64.28125 77.066406 C 90.433594 64.121094 117.375 78.144531 144.671875 78.789062 C 117.410156 80.382812 90.207031 69.199219 64.28125 77.066406 " fill-opacity="1" fill-rule="evenodd"/><g fill="#453421" fill-opacity="1"><g transform="translate(23.566182, 101.337349)"><g><path d="M 2.125 -2.125 C 2.125 -1.71875 2.144531 -1.335938 2.1875 -0.984375 C 2.226562 -0.640625 2.300781 -0.3125 2.40625 0 L 0 0 C 0.113281 -0.3125 0.1875 -0.640625 0.21875 -0.984375 C 0.257812 -1.335938 0.28125 -1.71875 0.28125 -2.125 C 0.28125 -2.394531 0.28125 -2.785156 0.28125 -3.296875 C 0.28125 -3.816406 0.28125 -4.394531 0.28125 -5.03125 C 0.28125 -5.675781 0.28125 -6.316406 0.28125 -6.953125 C 0.28125 -7.585938 0.28125 -8.164062 0.28125 -8.6875 C 0.28125 -9.207031 0.28125 -9.597656 0.28125 -9.859375 C 0.28125 -10.265625 0.257812 -10.644531 0.21875 -11 C 0.1875 -11.363281 0.113281 -11.691406 0 -11.984375 L 2.40625 -11.984375 C 2.300781 -11.691406 2.226562 -11.363281 2.1875 -11 C 2.144531 -10.644531 2.125 -10.265625 2.125 -9.859375 L 2.125 -5.796875 L 7.46875 -5.796875 L 7.46875 -9.859375 C 7.46875 -10.265625 7.445312 -10.644531 7.40625 -11 C 7.375 -11.363281 7.296875 -11.691406 7.171875 -11.984375 L 9.59375 -11.984375 C 9.488281 -11.691406 9.410156 -11.363281 9.359375 -11 C 9.316406 -10.644531 9.296875 -10.265625 9.296875 -9.859375 C 9.296875 -9.597656 9.296875 -9.207031 9.296875 -8.6875 C 9.296875 -8.164062 9.296875 -7.585938 9.296875 -6.953125 C 9.296875 -6.316406 9.296875 -5.675781 9.296875 -5.03125 C 9.296875 -4.394531 9.296875 -3.816406 9.296875 -3.296875 C 9.296875 -2.785156 9.296875 -2.394531 9.296875 -2.125 C 9.296875 -1.71875 9.316406 -1.335938 9.359375 -0.984375 C 9.410156 -0.640625 9.488281 -0.3125 9.59375 0 L 7.171875 0 C 7.296875 -0.3125 7.375 -0.640625 7.40625 -0.984375 C 7.445312 -1.335938 7.46875 -1.71875 7.46875 -2.125 L 7.46875 -5.171875 L 2.125 -5.171875 Z M 2.125 -2.125 "/></g></g></g><g fill="#453421" fill-opacity="1"><g transform="translate(34.159723, 101.337349)"><g><path d="M 6.21875 -12.21875 C 7.082031 -12.21875 7.890625 -12.054688 8.640625 -11.734375 C 9.390625 -11.410156 10.050781 -10.960938 10.625 -10.390625 C 11.195312 -9.828125 11.640625 -9.164062 11.953125 -8.40625 C 12.273438 -7.65625 12.4375 -6.851562 12.4375 -6 C 12.4375 -5.132812 12.273438 -4.328125 11.953125 -3.578125 C 11.640625 -2.828125 11.195312 -2.164062 10.625 -1.59375 C 10.050781 -1.019531 9.390625 -0.570312 8.640625 -0.25 C 7.890625 0.0625 7.082031 0.21875 6.21875 0.21875 C 5.351562 0.21875 4.546875 0.0625 3.796875 -0.25 C 3.046875 -0.570312 2.382812 -1.019531 1.8125 -1.59375 C 1.238281 -2.164062 0.789062 -2.828125 0.46875 -3.578125 C 0.15625 -4.328125 0 -5.132812 0 -6 C 0 -6.851562 0.15625 -7.65625 0.46875 -8.40625 C 0.789062 -9.164062 1.238281 -9.828125 1.8125 -10.390625 C 2.382812 -10.960938 3.046875 -11.410156 3.796875 -11.734375 C 4.546875 -12.054688 5.351562 -12.21875 6.21875 -12.21875 Z M 8.90625 -1.125 C 9.425781 -1.40625 9.84375 -1.796875 10.15625 -2.296875 C 10.46875 -2.796875 10.675781 -3.363281 10.78125 -4 C 10.882812 -4.644531 10.867188 -5.316406 10.734375 -6.015625 C 10.609375 -6.710938 10.359375 -7.398438 9.984375 -8.078125 C 9.617188 -8.742188 9.171875 -9.316406 8.640625 -9.796875 C 8.117188 -10.273438 7.5625 -10.644531 6.96875 -10.90625 C 6.382812 -11.164062 5.796875 -11.296875 5.203125 -11.296875 C 4.609375 -11.304688 4.050781 -11.171875 3.53125 -10.890625 C 3.007812 -10.597656 2.59375 -10.195312 2.28125 -9.6875 C 1.96875 -9.1875 1.757812 -8.617188 1.65625 -7.984375 C 1.550781 -7.347656 1.5625 -6.679688 1.6875 -5.984375 C 1.820312 -5.285156 2.078125 -4.601562 2.453125 -3.9375 C 2.816406 -3.257812 3.257812 -2.675781 3.78125 -2.1875 C 4.300781 -1.707031 4.851562 -1.335938 5.4375 -1.078125 C 6.03125 -0.816406 6.625 -0.6875 7.21875 -0.6875 C 7.820312 -0.6875 8.382812 -0.832031 8.90625 -1.125 Z M 8.90625 -1.125 "/></g></g></g><g fill="#453421" fill-opacity="1"><g transform="translate(47.62938, 101.337349)"><g><path d="M 5.765625 -2.125 C 5.765625 -1.71875 5.78125 -1.335938 5.8125 -0.984375 C 5.851562 -0.640625 5.929688 -0.3125 6.046875 0 L 3.625 0 C 3.738281 -0.3125 3.816406 -0.640625 3.859375 -0.984375 C 3.898438 -1.335938 3.921875 -1.71875 3.921875 -2.125 C 3.921875 -3.65625 3.921875 -5.191406 3.921875 -6.734375 C 3.921875 -8.273438 3.921875 -9.816406 3.921875 -11.359375 L 2.234375 -11.359375 C 1.765625 -11.359375 1.382812 -11.28125 1.09375 -11.125 C 0.800781 -10.976562 0.578125 -10.8125 0.421875 -10.625 C 0.273438 -10.4375 0.179688 -10.285156 0.140625 -10.171875 L 0 -10.171875 L 0.109375 -11.984375 L 9.578125 -11.984375 L 9.6875 -10.171875 L 9.546875 -10.171875 C 9.503906 -10.285156 9.40625 -10.4375 9.25 -10.625 C 9.101562 -10.8125 8.882812 -10.976562 8.59375 -11.125 C 8.300781 -11.28125 7.914062 -11.359375 7.4375 -11.359375 L 5.765625 -11.359375 C 5.765625 -9.816406 5.765625 -8.273438 5.765625 -6.734375 C 5.765625 -5.191406 5.765625 -3.65625 5.765625 -2.125 Z M 5.765625 -2.125 "/></g></g></g><g fill="#453421" fill-opacity="1"><g transform="translate(58.334774, 101.337349)"><g><path d="M 8.328125 0 L 0 0 C 0.113281 -0.3125 0.1875 -0.640625 0.21875 -0.984375 C 0.257812 -1.335938 0.28125 -1.71875 0.28125 -2.125 C 0.28125 -2.394531 0.28125 -2.785156 0.28125 -3.296875 C 0.28125 -3.816406 0.28125 -4.394531 0.28125 -5.03125 C 0.28125 -5.675781 0.28125 -6.316406 0.28125 -6.953125 C 0.28125 -7.585938 0.28125 -8.164062 0.28125 -8.6875 C 0.28125 -9.207031 0.28125 -9.597656 0.28125 -9.859375 C 0.28125 -10.265625 0.257812 -10.644531 0.21875 -11 C 0.1875 -11.363281 0.113281 -11.691406 0 -11.984375 L 7.859375 -11.984375 L 7.96875 -10.171875 L 7.84375 -10.171875 C 7.800781 -10.285156 7.707031 -10.4375 7.5625 -10.625 C 7.414062 -10.8125 7.191406 -10.976562 6.890625 -11.125 C 6.597656 -11.28125 6.210938 -11.359375 5.734375 -11.359375 L 2.125 -11.359375 L 2.125 -5.796875 L 3.890625 -5.796875 C 4.367188 -5.796875 4.753906 -5.875 5.046875 -6.03125 C 5.335938 -6.1875 5.554688 -6.359375 5.703125 -6.546875 C 5.859375 -6.742188 5.957031 -6.894531 6 -7 L 6.140625 -7 C 6.140625 -6.5 6.140625 -5.992188 6.140625 -5.484375 C 6.140625 -4.984375 6.140625 -4.484375 6.140625 -3.984375 L 6 -3.984375 C 5.957031 -4.097656 5.859375 -4.25 5.703125 -4.4375 C 5.554688 -4.625 5.335938 -4.789062 5.046875 -4.9375 C 4.753906 -5.09375 4.367188 -5.171875 3.890625 -5.171875 L 2.125 -5.171875 L 2.125 -0.625 L 6.1875 -0.625 C 6.664062 -0.625 7.050781 -0.703125 7.34375 -0.859375 C 7.632812 -1.015625 7.851562 -1.1875 8 -1.375 C 8.15625 -1.5625 8.253906 -1.710938 8.296875 -1.828125 L 8.4375 -1.828125 Z M 8.328125 0 "/></g></g></g><g fill="#453421" fill-opacity="1"><g transform="translate(67.793841, 101.337349)"><g><path d="M 2.125 -9.859375 L 2.125 -0.625 L 5.796875 -0.625 C 6.273438 -0.625 6.660156 -0.703125 6.953125 -0.859375 C 7.242188 -1.015625 7.460938 -1.1875 7.609375 -1.375 C 7.753906 -1.5625 7.847656 -1.710938 7.890625 -1.828125 L 8.046875 -1.828125 L 7.921875 0 L 0 0 C 0.113281 -0.3125 0.1875 -0.640625 0.21875 -0.984375 C 0.257812 -1.335938 0.28125 -1.71875 0.28125 -2.125 C 0.28125 -2.394531 0.28125 -2.785156 0.28125 -3.296875 C 0.28125 -3.816406 0.28125 -4.394531 0.28125 -5.03125 C 0.28125 -5.675781 0.28125 -6.316406 0.28125 -6.953125 C 0.28125 -7.585938 0.28125 -8.164062 0.28125 -8.6875 C 0.28125 -9.207031 0.28125 -9.597656 0.28125 -9.859375 C 0.28125 -10.265625 0.257812 -10.644531 0.21875 -11 C 0.1875 -11.363281 0.113281 -11.691406 0 -11.984375 L 2.40625 -11.984375 C 2.300781 -11.691406 2.226562 -11.363281 2.1875 -11 C 2.144531 -10.644531 2.125 -10.265625 2.125 -9.859375 Z M 2.125 -9.859375 "/></g></g></g><g fill="#453421" fill-opacity="1"><g transform="translate(76.869432, 101.337349)"><g/></g></g><g fill="#453421" fill-opacity="1"><g transform="translate(82.062254, 101.337349)"><g><path d="M 8.453125 -8.71875 C 8.429688 -9.375 8.257812 -9.910156 7.9375 -10.328125 C 7.613281 -10.753906 7.1875 -11.066406 6.65625 -11.265625 C 6.132812 -11.472656 5.550781 -11.578125 4.90625 -11.578125 C 4.65625 -11.585938 4.367188 -11.550781 4.046875 -11.46875 C 3.722656 -11.382812 3.421875 -11.253906 3.140625 -11.078125 C 2.867188 -10.898438 2.664062 -10.65625 2.53125 -10.34375 C 2.382812 -9.976562 2.375 -9.585938 2.5 -9.171875 C 2.625 -8.765625 2.921875 -8.457031 3.390625 -8.25 C 3.847656 -8.050781 4.351562 -7.863281 4.90625 -7.6875 C 5.457031 -7.519531 6.007812 -7.332031 6.5625 -7.125 C 7.113281 -6.925781 7.613281 -6.671875 8.0625 -6.359375 C 8.570312 -6.003906 8.953125 -5.585938 9.203125 -5.109375 C 9.453125 -4.640625 9.570312 -4.144531 9.5625 -3.625 C 9.5625 -3.113281 9.4375 -2.613281 9.1875 -2.125 C 8.945312 -1.644531 8.585938 -1.21875 8.109375 -0.84375 C 7.628906 -0.476562 7.085938 -0.207031 6.484375 -0.03125 C 5.890625 0.132812 5.296875 0.21875 4.703125 0.21875 C 4.285156 0.21875 3.820312 0.160156 3.3125 0.046875 C 2.8125 -0.0664062 2.320312 -0.234375 1.84375 -0.453125 C 1.363281 -0.679688 0.941406 -0.953125 0.578125 -1.265625 C 0.515625 -1.316406 0.429688 -1.367188 0.328125 -1.421875 C 0.222656 -1.484375 0.113281 -1.5 0 -1.46875 L 0.3125 -5.25 L 0.46875 -5.25 C 0.46875 -4.644531 0.503906 -4.101562 0.578125 -3.625 C 0.648438 -3.15625 0.804688 -2.71875 1.046875 -2.3125 C 1.296875 -1.914062 1.679688 -1.539062 2.203125 -1.1875 C 2.585938 -0.914062 2.992188 -0.722656 3.421875 -0.609375 C 3.847656 -0.492188 4.296875 -0.4375 4.765625 -0.4375 C 5.359375 -0.4375 5.867188 -0.554688 6.296875 -0.796875 C 6.734375 -1.046875 7.066406 -1.375 7.296875 -1.78125 C 7.535156 -2.1875 7.65625 -2.625 7.65625 -3.09375 C 7.65625 -3.53125 7.546875 -3.898438 7.328125 -4.203125 C 7.117188 -4.503906 6.847656 -4.757812 6.515625 -4.96875 C 6.191406 -5.1875 5.851562 -5.363281 5.5 -5.5 C 4.914062 -5.726562 4.316406 -5.925781 3.703125 -6.09375 C 3.085938 -6.269531 2.507812 -6.507812 1.96875 -6.8125 C 1.550781 -7.039062 1.21875 -7.34375 0.96875 -7.71875 C 0.726562 -8.09375 0.578125 -8.492188 0.515625 -8.921875 C 0.460938 -9.347656 0.507812 -9.765625 0.65625 -10.171875 C 0.8125 -10.585938 1.082031 -10.953125 1.46875 -11.265625 C 1.875 -11.609375 2.351562 -11.851562 2.90625 -12 C 3.46875 -12.144531 4.023438 -12.21875 4.578125 -12.21875 C 5.972656 -12.21875 7.140625 -11.875 8.078125 -11.1875 C 8.171875 -11.125 8.257812 -11.066406 8.34375 -11.015625 C 8.425781 -10.972656 8.507812 -10.972656 8.59375 -11.015625 L 8.59375 -8.71875 Z M 8.453125 -8.71875 "/></g></g></g><g fill="#453421" fill-opacity="1"><g transform="translate(92.639815, 101.337349)"><g><path d="M 2.125 -2.125 C 2.125 -1.71875 2.144531 -1.335938 2.1875 -0.984375 C 2.226562 -0.640625 2.300781 -0.3125 2.40625 0 L 0 0 C 0.113281 -0.3125 0.1875 -0.640625 0.21875 -0.984375 C 0.257812 -1.335938 0.28125 -1.71875 0.28125 -2.125 C 0.28125 -2.394531 0.28125 -2.785156 0.28125 -3.296875 C 0.28125 -3.816406 0.28125 -4.394531 0.28125 -5.03125 C 0.28125 -5.675781 0.28125 -6.316406 0.28125 -6.953125 C 0.28125 -7.585938 0.28125 -8.164062 0.28125 -8.6875 C 0.28125 -9.207031 0.28125 -9.597656 0.28125 -9.859375 C 0.28125 -10.265625 0.257812 -10.644531 0.21875 -11 C 0.1875 -11.363281 0.113281 -11.691406 0 -11.984375 L 2.40625 -11.984375 C 2.300781 -11.691406 2.226562 -11.363281 2.1875 -11 C 2.144531 -10.644531 2.125 -10.265625 2.125 -9.859375 L 2.125 -5.796875 L 7.46875 -5.796875 L 7.46875 -9.859375 C 7.46875 -10.265625 7.445312 -10.644531 7.40625 -11 C 7.375 -11.363281 7.296875 -11.691406 7.171875 -11.984375 L 9.59375 -11.984375 C 9.488281 -11.691406 9.410156 -11.363281 9.359375 -11 C 9.316406 -10.644531 9.296875 -10.265625 9.296875 -9.859375 C 9.296875 -9.597656 9.296875 -9.207031 9.296875 -8.6875 C 9.296875 -8.164062 9.296875 -7.585938 9.296875 -6.953125 C 9.296875 -6.316406 9.296875 -5.675781 9.296875 -5.03125 C 9.296875 -4.394531 9.296875 -3.816406 9.296875 -3.296875 C 9.296875 -2.785156 9.296875 -2.394531 9.296875 -2.125 C 9.296875 -1.71875 9.316406 -1.335938 9.359375 -0.984375 C 9.410156 -0.640625 9.488281 -0.3125 9.59375 0 L 7.171875 0 C 7.296875 -0.3125 7.375 -0.640625 7.40625 -0.984375 C 7.445312 -1.335938 7.46875 -1.71875 7.46875 -2.125 L 7.46875 -5.171875 L 2.125 -5.171875 Z M 2.125 -2.125 "/></g></g></g><g fill="#453421" fill-opacity="1"><g transform="translate(103.233355, 101.337349)"><g><path d="M 6.53125 -11.984375 L 10.109375 -2.109375 C 10.234375 -1.753906 10.390625 -1.390625 10.578125 -1.015625 C 10.765625 -0.640625 10.941406 -0.300781 11.109375 0 L 8.671875 0 C 8.671875 -0.28125 8.613281 -0.609375 8.5 -0.984375 C 8.394531 -1.367188 8.28125 -1.734375 8.15625 -2.078125 C 8.007812 -2.484375 7.847656 -2.835938 7.671875 -3.140625 C 7.492188 -3.453125 7.238281 -3.710938 6.90625 -3.921875 C 6.53125 -4.148438 6.109375 -4.300781 5.640625 -4.375 C 5.171875 -4.457031 4.703125 -4.460938 4.234375 -4.390625 C 3.765625 -4.328125 3.34375 -4.1875 2.96875 -3.96875 C 2.59375 -3.75 2.316406 -3.484375 2.140625 -3.171875 C 1.960938 -2.859375 1.796875 -2.503906 1.640625 -2.109375 C 1.441406 -1.546875 1.59375 -0.84375 2.09375 0 L 0 0 C 0.175781 -0.300781 0.351562 -0.640625 0.53125 -1.015625 C 0.707031 -1.390625 0.859375 -1.753906 0.984375 -2.109375 L 4.5625 -11.984375 Z M 7.328125 -4.390625 L 4.890625 -11.0625 L 2.484375 -4.390625 C 2.953125 -4.691406 3.46875 -4.890625 4.03125 -4.984375 C 4.601562 -5.085938 5.175781 -5.085938 5.75 -4.984375 C 6.332031 -4.890625 6.859375 -4.691406 7.328125 -4.390625 Z M 7.328125 -4.390625 "/></g></g></g><g fill="#453421" fill-opacity="1"><g transform="translate(115.344846, 101.337349)"><g><path d="M 7.90625 -11.984375 L 10.015625 -11.984375 C 9.910156 -11.691406 9.835938 -11.363281 9.796875 -11 C 9.753906 -10.644531 9.734375 -10.265625 9.734375 -9.859375 L 9.734375 0 L 8.90625 0 L 0.90625 -10.75 L 0.90625 -2.859375 C 0.90625 -2.515625 0.9375 -2.15625 1 -1.78125 C 1.070312 -1.414062 1.191406 -1.070312 1.359375 -0.75 C 1.535156 -0.4375 1.785156 -0.1875 2.109375 0 L 0 0 C 0.113281 -0.3125 0.1875 -0.640625 0.21875 -0.984375 C 0.257812 -1.335938 0.28125 -1.71875 0.28125 -2.125 L 0.28125 -11.609375 L 0 -11.984375 C 0.382812 -11.984375 0.765625 -11.984375 1.140625 -11.984375 C 1.523438 -11.984375 1.910156 -11.984375 2.296875 -11.984375 L 9.109375 -2.8125 L 9.109375 -9.125 C 9.109375 -9.46875 9.078125 -9.820312 9.015625 -10.1875 C 8.953125 -10.5625 8.832031 -10.910156 8.65625 -11.234375 C 8.488281 -11.554688 8.238281 -11.804688 7.90625 -11.984375 Z M 7.90625 -11.984375 "/></g></g></g><g fill="#453421" fill-opacity="1"><g transform="translate(126.385786, 101.337349)"><g><path d="M 5.765625 -2.125 C 5.765625 -1.71875 5.78125 -1.335938 5.8125 -0.984375 C 5.851562 -0.640625 5.929688 -0.3125 6.046875 0 L 3.625 0 C 3.738281 -0.3125 3.816406 -0.640625 3.859375 -0.984375 C 3.898438 -1.335938 3.921875 -1.71875 3.921875 -2.125 C 3.921875 -3.65625 3.921875 -5.191406 3.921875 -6.734375 C 3.921875 -8.273438 3.921875 -9.816406 3.921875 -11.359375 L 2.234375 -11.359375 C 1.765625 -11.359375 1.382812 -11.28125 1.09375 -11.125 C 0.800781 -10.976562 0.578125 -10.8125 0.421875 -10.625 C 0.273438 -10.4375 0.179688 -10.285156 0.140625 -10.171875 L 0 -10.171875 L 0.109375 -11.984375 L 9.578125 -11.984375 L 9.6875 -10.171875 L 9.546875 -10.171875 C 9.503906 -10.285156 9.40625 -10.4375 9.25 -10.625 C 9.101562 -10.8125 8.882812 -10.976562 8.59375 -11.125 C 8.300781 -11.28125 7.914062 -11.359375 7.4375 -11.359375 L 5.765625 -11.359375 C 5.765625 -9.816406 5.765625 -8.273438 5.765625 -6.734375 C 5.765625 -5.191406 5.765625 -3.65625 5.765625 -2.125 Z M 5.765625 -2.125 "/></g></g></g><g fill="#453421" fill-opacity="1"><g transform="translate(137.091179, 101.337349)"><g><path d="M 0.28125 -9.859375 C 0.28125 -10.265625 0.257812 -10.644531 0.21875 -11 C 0.1875 -11.363281 0.113281 -11.691406 0 -11.984375 L 2.40625 -11.984375 C 2.300781 -11.691406 2.226562 -11.363281 2.1875 -11 C 2.144531 -10.644531 2.125 -10.265625 2.125 -9.859375 C 2.125 -9.597656 2.125 -9.207031 2.125 -8.6875 C 2.125 -8.164062 2.125 -7.585938 2.125 -6.953125 C 2.125 -6.316406 2.125 -5.675781 2.125 -5.03125 C 2.125 -4.394531 2.125 -3.816406 2.125 -3.296875 C 2.125 -2.785156 2.125 -2.394531 2.125 -2.125 C 2.125 -1.71875 2.144531 -1.335938 2.1875 -0.984375 C 2.226562 -0.640625 2.300781 -0.3125 2.40625 0 L 0 0 C 0.113281 -0.3125 0.1875 -0.640625 0.21875 -0.984375 C 0.257812 -1.335938 0.28125 -1.71875 0.28125 -2.125 Z M 0.28125 -9.859375 "/></g></g></g><g fill="#453421" fill-opacity="1"><g transform="translate(140.569628, 101.337349)"><g/></g></g><g fill="#453421" fill-opacity="1"><g transform="translate(145.76245, 101.337349)"><g/></g></g><g fill="#453421" fill-opacity="1"><g transform="translate(150.960843, 101.337349)"><g><path d="M 4.734375 -11.984375 C 5.628906 -11.984375 6.363281 -11.867188 6.9375 -11.640625 C 7.507812 -11.410156 7.929688 -11.101562 8.203125 -10.71875 C 8.484375 -10.34375 8.625 -9.921875 8.625 -9.453125 C 8.625 -8.898438 8.503906 -8.429688 8.265625 -8.046875 C 8.035156 -7.660156 7.726562 -7.328125 7.34375 -7.046875 C 6.957031 -6.773438 6.53125 -6.523438 6.0625 -6.296875 C 5.601562 -6.078125 5.144531 -5.851562 4.6875 -5.625 C 4.226562 -5.394531 3.800781 -5.140625 3.40625 -4.859375 C 3.019531 -4.578125 2.707031 -4.242188 2.46875 -3.859375 C 2.238281 -3.472656 2.125 -3.007812 2.125 -2.46875 L 2.125 -2.125 C 2.125 -1.71875 2.144531 -1.335938 2.1875 -0.984375 C 2.226562 -0.640625 2.300781 -0.3125 2.40625 0 C 2.0625 0 1.660156 0 1.203125 0 C 0.753906 0 0.351562 0 0 0 C 0.113281 -0.3125 0.1875 -0.640625 0.21875 -0.984375 C 0.257812 -1.335938 0.28125 -1.71875 0.28125 -2.125 C 0.28125 -2.394531 0.28125 -2.785156 0.28125 -3.296875 C 0.28125 -3.816406 0.28125 -4.394531 0.28125 -5.03125 C 0.28125 -5.675781 0.28125 -6.316406 0.28125 -6.953125 C 0.28125 -7.585938 0.28125 -8.164062 0.28125 -8.6875 C 0.28125 -9.207031 0.28125 -9.597656 0.28125 -9.859375 C 0.28125 -10.265625 0.257812 -10.644531 0.21875 -11 C 0.1875 -11.363281 0.113281 -11.691406 0 -11.984375 Z M 2.125 -4.375 C 2.394531 -4.832031 2.726562 -5.226562 3.125 -5.5625 C 3.519531 -5.894531 3.929688 -6.195312 4.359375 -6.46875 C 4.796875 -6.738281 5.195312 -7.015625 5.5625 -7.296875 C 5.9375 -7.578125 6.238281 -7.894531 6.46875 -8.25 C 6.695312 -8.613281 6.800781 -9.039062 6.78125 -9.53125 C 6.769531 -10.019531 6.585938 -10.398438 6.234375 -10.671875 C 5.878906 -10.953125 5.425781 -11.144531 4.875 -11.25 C 4.320312 -11.363281 3.722656 -11.421875 3.078125 -11.421875 L 2.125 -11.421875 Z M 2.125 -4.375 "/></g></g></g><g fill="#453421" fill-opacity="1"><g transform="translate(160.595674, 101.337349)"><g><path d="M 6.53125 -11.984375 L 10.109375 -2.109375 C 10.234375 -1.753906 10.390625 -1.390625 10.578125 -1.015625 C 10.765625 -0.640625 10.941406 -0.300781 11.109375 0 L 8.671875 0 C 8.671875 -0.28125 8.613281 -0.609375 8.5 -0.984375 C 8.394531 -1.367188 8.28125 -1.734375 8.15625 -2.078125 C 8.007812 -2.484375 7.847656 -2.835938 7.671875 -3.140625 C 7.492188 -3.453125 7.238281 -3.710938 6.90625 -3.921875 C 6.53125 -4.148438 6.109375 -4.300781 5.640625 -4.375 C 5.171875 -4.457031 4.703125 -4.460938 4.234375 -4.390625 C 3.765625 -4.328125 3.34375 -4.1875 2.96875 -3.96875 C 2.59375 -3.75 2.316406 -3.484375 2.140625 -3.171875 C 1.960938 -2.859375 1.796875 -2.503906 1.640625 -2.109375 C 1.441406 -1.546875 1.59375 -0.84375 2.09375 0 L 0 0 C 0.175781 -0.300781 0.351562 -0.640625 0.53125 -1.015625 C 0.707031 -1.390625 0.859375 -1.753906 0.984375 -2.109375 L 4.5625 -11.984375 Z M 7.328125 -4.390625 L 4.890625 -11.0625 L 2.484375 -4.390625 C 2.953125 -4.691406 3.46875 -4.890625 4.03125 -4.984375 C 4.601562 -5.085938 5.175781 -5.085938 5.75 -4.984375 C 6.332031 -4.890625 6.859375 -4.691406 7.328125 -4.390625 Z M 7.328125 -4.390625 "/></g></g></g><g fill="#453421" fill-opacity="1"><g transform="translate(172.707165, 101.337349)"><g><path d="M 2.125 -9.859375 L 2.125 -0.625 L 5.796875 -0.625 C 6.273438 -0.625 6.660156 -0.703125 6.953125 -0.859375 C 7.242188 -1.015625 7.460938 -1.1875 7.609375 -1.375 C 7.753906 -1.5625 7.847656 -1.710938 7.890625 -1.828125 L 8.046875 -1.828125 L 7.921875 0 L 0 0 C 0.113281 -0.3125 0.1875 -0.640625 0.21875 -0.984375 C 0.257812 -1.335938 0.28125 -1.71875 0.28125 -2.125 C 0.28125 -2.394531 0.28125 -2.785156 0.28125 -3.296875 C 0.28125 -3.816406 0.28125 -4.394531 0.28125 -5.03125 C 0.28125 -5.675781 0.28125 -6.316406 0.28125 -6.953125 C 0.28125 -7.585938 0.28125 -8.164062 0.28125 -8.6875 C 0.28125 -9.207031 0.28125 -9.597656 0.28125 -9.859375 C 0.28125 -10.265625 0.257812 -10.644531 0.21875 -11 C 0.1875 -11.363281 0.113281 -11.691406 0 -11.984375 L 2.40625 -11.984375 C 2.300781 -11.691406 2.226562 -11.363281 2.1875 -11 C 2.144531 -10.644531 2.125 -10.265625 2.125 -9.859375 Z M 2.125 -9.859375 "/></g></g></g><g fill="#453421" fill-opacity="1"><g transform="translate(181.782755, 101.337349)"><g><path d="M 6.53125 -11.984375 L 10.109375 -2.109375 C 10.234375 -1.753906 10.390625 -1.390625 10.578125 -1.015625 C 10.765625 -0.640625 10.941406 -0.300781 11.109375 0 L 8.671875 0 C 8.671875 -0.28125 8.613281 -0.609375 8.5 -0.984375 C 8.394531 -1.367188 8.28125 -1.734375 8.15625 -2.078125 C 8.007812 -2.484375 7.847656 -2.835938 7.671875 -3.140625 C 7.492188 -3.453125 7.238281 -3.710938 6.90625 -3.921875 C 6.53125 -4.148438 6.109375 -4.300781 5.640625 -4.375 C 5.171875 -4.457031 4.703125 -4.460938 4.234375 -4.390625 C 3.765625 -4.328125 3.34375 -4.1875 2.96875 -3.96875 C 2.59375 -3.75 2.316406 -3.484375 2.140625 -3.171875 C 1.960938 -2.859375 1.796875 -2.503906 1.640625 -2.109375 C 1.441406 -1.546875 1.59375 -0.84375 2.09375 0 L 0 0 C 0.175781 -0.300781 0.351562 -0.640625 0.53125 -1.015625 C 0.707031 -1.390625 0.859375 -1.753906 0.984375 -2.109375 L 4.5625 -11.984375 Z M 7.328125 -4.390625 L 4.890625 -11.0625 L 2.484375 -4.390625 C 2.953125 -4.691406 3.46875 -4.890625 4.03125 -4.984375 C 4.601562 -5.085938 5.175781 -5.085938 5.75 -4.984375 C 6.332031 -4.890625 6.859375 -4.691406 7.328125 -4.390625 Z M 7.328125 -4.390625 "/></g></g></g><g fill="#453421" fill-opacity="1"><g transform="translate(193.894246, 101.337349)"><g><path d="M 6.234375 -12.21875 C 6.992188 -12.21875 7.691406 -12.125 8.328125 -11.9375 C 8.972656 -11.75 9.625 -11.4375 10.28125 -11 C 10.46875 -10.863281 10.703125 -10.707031 10.984375 -10.53125 C 11.273438 -10.351562 11.539062 -10.269531 11.78125 -10.28125 L 11.78125 -7.53125 L 11.578125 -7.53125 C 11.378906 -8.207031 11.0625 -8.835938 10.625 -9.421875 C 10.1875 -10.015625 9.65625 -10.492188 9.03125 -10.859375 C 8.414062 -11.222656 7.710938 -11.429688 6.921875 -11.484375 C 6.273438 -11.515625 5.648438 -11.398438 5.046875 -11.140625 C 4.453125 -10.890625 3.921875 -10.519531 3.453125 -10.03125 C 2.984375 -9.539062 2.609375 -8.953125 2.328125 -8.265625 C 2.054688 -7.585938 1.921875 -6.835938 1.921875 -6.015625 C 1.921875 -5.234375 2.046875 -4.507812 2.296875 -3.84375 C 2.554688 -3.1875 2.910156 -2.613281 3.359375 -2.125 C 3.804688 -1.644531 4.316406 -1.265625 4.890625 -0.984375 C 5.460938 -0.710938 6.066406 -0.566406 6.703125 -0.546875 C 7.523438 -0.523438 8.289062 -0.679688 9 -1.015625 C 9.707031 -1.347656 10.328125 -1.8125 10.859375 -2.40625 C 11.390625 -3.007812 11.789062 -3.6875 12.0625 -4.4375 L 12.25 -4.4375 C 12.007812 -3.53125 11.59375 -2.722656 11 -2.015625 C 10.414062 -1.316406 9.707031 -0.769531 8.875 -0.375 C 8.050781 0.0195312 7.171875 0.21875 6.234375 0.21875 C 5.367188 0.21875 4.554688 0.0625 3.796875 -0.25 C 3.046875 -0.570312 2.382812 -1.019531 1.8125 -1.59375 C 1.238281 -2.164062 0.789062 -2.828125 0.46875 -3.578125 C 0.15625 -4.335938 0 -5.148438 0 -6.015625 C 0 -6.878906 0.15625 -7.679688 0.46875 -8.421875 C 0.789062 -9.171875 1.238281 -9.828125 1.8125 -10.390625 C 2.382812 -10.960938 3.046875 -11.410156 3.796875 -11.734375 C 4.554688 -12.054688 5.367188 -12.21875 6.234375 -12.21875 Z M 6.234375 -12.21875 "/></g></g></g><g fill="#453421" fill-opacity="1"><g transform="translate(207.14021, 101.337349)"><g><path d="M 8.328125 0 L 0 0 C 0.113281 -0.3125 0.1875 -0.640625 0.21875 -0.984375 C 0.257812 -1.335938 0.28125 -1.71875 0.28125 -2.125 C 0.28125 -2.394531 0.28125 -2.785156 0.28125 -3.296875 C 0.28125 -3.816406 0.28125 -4.394531 0.28125 -5.03125 C 0.28125 -5.675781 0.28125 -6.316406 0.28125 -6.953125 C 0.28125 -7.585938 0.28125 -8.164062 0.28125 -8.6875 C 0.28125 -9.207031 0.28125 -9.597656 0.28125 -9.859375 C 0.28125 -10.265625 0.257812 -10.644531 0.21875 -11 C 0.1875 -11.363281 0.113281 -11.691406 0 -11.984375 L 7.859375 -11.984375 L 7.96875 -10.171875 L 7.84375 -10.171875 C 7.800781 -10.285156 7.707031 -10.4375 7.5625 -10.625 C 7.414062 -10.8125 7.191406 -10.976562 6.890625 -11.125 C 6.597656 -11.28125 6.210938 -11.359375 5.734375 -11.359375 L 2.125 -11.359375 L 2.125 -5.796875 L 3.890625 -5.796875 C 4.367188 -5.796875 4.753906 -5.875 5.046875 -6.03125 C 5.335938 -6.1875 5.554688 -6.359375 5.703125 -6.546875 C 5.859375 -6.742188 5.957031 -6.894531 6 -7 L 6.140625 -7 C 6.140625 -6.5 6.140625 -5.992188 6.140625 -5.484375 C 6.140625 -4.984375 6.140625 -4.484375 6.140625 -3.984375 L 6 -3.984375 C 5.957031 -4.097656 5.859375 -4.25 5.703125 -4.4375 C 5.554688 -4.625 5.335938 -4.789062 5.046875 -4.9375 C 4.753906 -5.09375 4.367188 -5.171875 3.890625 -5.171875 L 2.125 -5.171875 L 2.125 -0.625 L 6.1875 -0.625 C 6.664062 -0.625 7.050781 -0.703125 7.34375 -0.859375 C 7.632812 -1.015625 7.851562 -1.1875 8 -1.375 C 8.15625 -1.5625 8.253906 -1.710938 8.296875 -1.828125 L 8.4375 -1.828125 Z M 8.328125 0 "/></g></g></g><g transform="matrix(1, 0, 0, 1, 62, 110)"><g clip-path="url(#946cba75a4)"><g fill="#453421" fill-opacity="1"><g transform="translate(1.223432, 5.888099)"><g><path d="M 0.296875 0 L 0.296875 -3.4375 L 1.59375 -3.4375 C 1.925781 -3.4375 2.195312 -3.359375 2.40625 -3.203125 C 2.625 -3.054688 2.785156 -2.851562 2.890625 -2.59375 C 2.992188 -2.332031 3.046875 -2.035156 3.046875 -1.703125 C 3.046875 -1.367188 2.992188 -1.070312 2.890625 -0.8125 C 2.785156 -0.5625 2.625 -0.363281 2.40625 -0.21875 C 2.1875 -0.0703125 1.914062 0 1.59375 0 Z M 0.625 -0.28125 L 1.546875 -0.28125 C 1.929688 -0.28125 2.222656 -0.40625 2.421875 -0.65625 C 2.617188 -0.914062 2.71875 -1.265625 2.71875 -1.703125 C 2.71875 -2.148438 2.617188 -2.503906 2.421875 -2.765625 C 2.234375 -3.023438 1.953125 -3.15625 1.578125 -3.15625 L 0.625 -3.15625 Z M 0.625 -0.28125 "/></g></g></g><g fill="#453421" fill-opacity="1"><g transform="translate(8.287117, 5.888099)"><g><path d="M 0.3125 0 L 0.3125 -3.4375 L 0.640625 -3.4375 L 0.640625 0 Z M 0.3125 0 "/></g></g></g><g fill="#453421" fill-opacity="1"><g transform="translate(13.086186, 5.888099)"><g><path d="M 1.53125 0.0625 C 1.269531 0.0625 1.03125 0.0195312 0.8125 -0.0625 C 0.601562 -0.15625 0.429688 -0.285156 0.296875 -0.453125 C 0.171875 -0.628906 0.101562 -0.847656 0.09375 -1.109375 L 0.421875 -1.109375 C 0.441406 -0.816406 0.550781 -0.59375 0.75 -0.4375 C 0.945312 -0.289062 1.207031 -0.21875 1.53125 -0.21875 C 1.820312 -0.21875 2.039062 -0.285156 2.1875 -0.421875 C 2.332031 -0.554688 2.40625 -0.71875 2.40625 -0.90625 C 2.40625 -1.082031 2.359375 -1.21875 2.265625 -1.3125 C 2.179688 -1.40625 2.054688 -1.476562 1.890625 -1.53125 C 1.734375 -1.582031 1.535156 -1.632812 1.296875 -1.6875 C 1.078125 -1.726562 0.882812 -1.78125 0.71875 -1.84375 C 0.5625 -1.914062 0.4375 -2.015625 0.34375 -2.140625 C 0.257812 -2.265625 0.21875 -2.425781 0.21875 -2.625 C 0.21875 -2.820312 0.269531 -2.984375 0.375 -3.109375 C 0.476562 -3.242188 0.613281 -3.34375 0.78125 -3.40625 C 0.957031 -3.46875 1.15625 -3.5 1.375 -3.5 C 1.613281 -3.5 1.820312 -3.457031 2 -3.375 C 2.1875 -3.300781 2.332031 -3.1875 2.4375 -3.03125 C 2.550781 -2.882812 2.613281 -2.703125 2.625 -2.484375 L 2.296875 -2.484375 C 2.273438 -2.710938 2.1875 -2.890625 2.03125 -3.015625 C 1.875 -3.148438 1.65625 -3.21875 1.375 -3.21875 C 1.132812 -3.21875 0.9375 -3.164062 0.78125 -3.0625 C 0.625 -2.957031 0.546875 -2.8125 0.546875 -2.625 C 0.546875 -2.476562 0.582031 -2.359375 0.65625 -2.265625 C 0.738281 -2.179688 0.851562 -2.113281 1 -2.0625 C 1.144531 -2.019531 1.316406 -1.984375 1.515625 -1.953125 C 1.765625 -1.898438 1.976562 -1.832031 2.15625 -1.75 C 2.34375 -1.675781 2.484375 -1.570312 2.578125 -1.4375 C 2.679688 -1.3125 2.734375 -1.140625 2.734375 -0.921875 C 2.734375 -0.742188 2.6875 -0.578125 2.59375 -0.421875 C 2.5 -0.273438 2.363281 -0.15625 2.1875 -0.0625 C 2.007812 0.0195312 1.789062 0.0625 1.53125 0.0625 Z M 1.53125 0.0625 "/></g></g></g><g fill="#453421" fill-opacity="1"><g transform="translate(19.836681, 5.888099)"><g><path d="M 1.75 0.0625 C 1.414062 0.0625 1.128906 -0.0078125 0.890625 -0.15625 C 0.660156 -0.3125 0.476562 -0.519531 0.34375 -0.78125 C 0.21875 -1.050781 0.15625 -1.363281 0.15625 -1.71875 C 0.15625 -2.0625 0.21875 -2.367188 0.34375 -2.640625 C 0.476562 -2.910156 0.664062 -3.117188 0.90625 -3.265625 C 1.144531 -3.421875 1.425781 -3.5 1.75 -3.5 C 2.007812 -3.5 2.234375 -3.445312 2.421875 -3.34375 C 2.609375 -3.25 2.757812 -3.113281 2.875 -2.9375 C 3 -2.769531 3.078125 -2.578125 3.109375 -2.359375 L 2.78125 -2.359375 C 2.75 -2.523438 2.6875 -2.671875 2.59375 -2.796875 C 2.507812 -2.929688 2.394531 -3.035156 2.25 -3.109375 C 2.101562 -3.179688 1.9375 -3.21875 1.75 -3.21875 C 1.476562 -3.21875 1.25 -3.148438 1.0625 -3.015625 C 0.875 -2.890625 0.726562 -2.710938 0.625 -2.484375 C 0.53125 -2.265625 0.484375 -2.007812 0.484375 -1.71875 C 0.484375 -1.425781 0.53125 -1.164062 0.625 -0.9375 C 0.726562 -0.71875 0.875 -0.539062 1.0625 -0.40625 C 1.25 -0.28125 1.472656 -0.21875 1.734375 -0.21875 C 1.953125 -0.21875 2.132812 -0.265625 2.28125 -0.359375 C 2.4375 -0.453125 2.554688 -0.570312 2.640625 -0.71875 C 2.734375 -0.875 2.789062 -1.039062 2.8125 -1.21875 L 3.140625 -1.21875 C 3.117188 -0.96875 3.046875 -0.742188 2.921875 -0.546875 C 2.796875 -0.359375 2.632812 -0.207031 2.4375 -0.09375 C 2.238281 0.0078125 2.007812 0.0625 1.75 0.0625 Z M 1.75 0.0625 "/></g></g></g><g fill="#453421" fill-opacity="1"><g transform="translate(26.972644, 5.888099)"><g><path d="M 1.765625 0.0625 C 1.441406 0.0625 1.160156 -0.015625 0.921875 -0.171875 C 0.679688 -0.328125 0.492188 -0.535156 0.359375 -0.796875 C 0.222656 -1.066406 0.15625 -1.375 0.15625 -1.71875 C 0.15625 -2.070312 0.222656 -2.378906 0.359375 -2.640625 C 0.492188 -2.910156 0.679688 -3.117188 0.921875 -3.265625 C 1.160156 -3.421875 1.441406 -3.5 1.765625 -3.5 C 2.097656 -3.5 2.382812 -3.421875 2.625 -3.265625 C 2.863281 -3.117188 3.050781 -2.910156 3.1875 -2.640625 C 3.320312 -2.378906 3.390625 -2.070312 3.390625 -1.71875 C 3.390625 -1.375 3.320312 -1.066406 3.1875 -0.796875 C 3.050781 -0.535156 2.863281 -0.328125 2.625 -0.171875 C 2.382812 -0.015625 2.097656 0.0625 1.765625 0.0625 Z M 1.765625 -0.21875 C 2.023438 -0.21875 2.25 -0.28125 2.4375 -0.40625 C 2.632812 -0.53125 2.785156 -0.707031 2.890625 -0.9375 C 2.992188 -1.164062 3.046875 -1.425781 3.046875 -1.71875 C 3.046875 -2.019531 2.992188 -2.28125 2.890625 -2.5 C 2.785156 -2.726562 2.632812 -2.90625 2.4375 -3.03125 C 2.25 -3.15625 2.023438 -3.21875 1.765625 -3.21875 C 1.515625 -3.21875 1.289062 -3.15625 1.09375 -3.03125 C 0.90625 -2.90625 0.753906 -2.726562 0.640625 -2.5 C 0.535156 -2.28125 0.484375 -2.019531 0.484375 -1.71875 C 0.484375 -1.425781 0.535156 -1.164062 0.640625 -0.9375 C 0.753906 -0.707031 0.90625 -0.53125 1.09375 -0.40625 C 1.289062 -0.28125 1.515625 -0.21875 1.765625 -0.21875 Z M 1.765625 -0.21875 "/></g></g></g><g fill="#453421" fill-opacity="1"><g transform="translate(34.373615, 5.888099)"><g><path d="M 1.296875 0 L 0.03125 -3.4375 L 0.375 -3.4375 L 1.453125 -0.46875 L 1.46875 -0.46875 L 2.53125 -3.4375 L 2.890625 -3.4375 L 1.609375 0 Z M 1.296875 0 "/></g></g></g><g fill="#453421" fill-opacity="1"><g transform="translate(41.148201, 5.888099)"><g><path d="M 0.296875 0 L 0.296875 -3.4375 L 2.640625 -3.4375 L 2.640625 -3.15625 L 0.625 -3.15625 L 0.625 -1.953125 L 2.453125 -1.953125 L 2.453125 -1.671875 L 0.625 -1.671875 L 0.625 -0.28125 L 2.6875 -0.28125 L 2.6875 0 Z M 0.296875 0 "/></g></g></g><g fill="#453421" fill-opacity="1"><g transform="translate(47.864968, 5.888099)"><g><path d="M 0.296875 0 L 0.296875 -3.4375 L 1.703125 -3.4375 C 2.035156 -3.4375 2.300781 -3.359375 2.5 -3.203125 C 2.695312 -3.046875 2.796875 -2.800781 2.796875 -2.46875 C 2.796875 -2.226562 2.726562 -2.03125 2.59375 -1.875 C 2.457031 -1.726562 2.273438 -1.632812 2.046875 -1.59375 L 2.046875 -1.578125 C 2.191406 -1.554688 2.304688 -1.503906 2.390625 -1.421875 C 2.484375 -1.347656 2.550781 -1.253906 2.59375 -1.140625 C 2.644531 -1.023438 2.679688 -0.90625 2.703125 -0.78125 C 2.722656 -0.65625 2.738281 -0.535156 2.75 -0.421875 C 2.757812 -0.316406 2.769531 -0.226562 2.78125 -0.15625 C 2.800781 -0.0820312 2.828125 -0.0390625 2.859375 -0.03125 L 2.859375 0 L 2.5 0 C 2.46875 -0.0195312 2.445312 -0.0703125 2.4375 -0.15625 C 2.425781 -0.238281 2.414062 -0.332031 2.40625 -0.4375 C 2.40625 -0.539062 2.390625 -0.648438 2.359375 -0.765625 C 2.335938 -0.890625 2.300781 -1 2.25 -1.09375 C 2.207031 -1.195312 2.140625 -1.28125 2.046875 -1.34375 C 1.953125 -1.40625 1.828125 -1.4375 1.671875 -1.4375 L 0.625 -1.4375 L 0.625 0 Z M 0.625 -1.71875 L 1.59375 -1.71875 C 1.851562 -1.71875 2.0625 -1.773438 2.21875 -1.890625 C 2.382812 -2.015625 2.46875 -2.195312 2.46875 -2.4375 C 2.46875 -2.695312 2.390625 -2.878906 2.234375 -2.984375 C 2.085938 -3.097656 1.875 -3.15625 1.59375 -3.15625 L 0.625 -3.15625 Z M 0.625 -1.71875 "/></g></g></g><g fill="#453421" fill-opacity="1"><g transform="translate(54.716647, 5.888099)"><g/></g></g><g fill="#453421" fill-opacity="1"><g transform="translate(59.607263, 5.888099)"><g><path d="M 1.265625 0 L 1.265625 -3.15625 L 0.09375 -3.15625 L 0.09375 -3.4375 L 2.765625 -3.4375 L 2.765625 -3.15625 L 1.59375 -3.15625 L 1.59375 0 Z M 1.265625 0 "/></g></g></g><g fill="#453421" fill-opacity="1"><g transform="translate(66.32403, 5.888099)"><g><path d="M 0.296875 0 L 0.296875 -3.4375 L 0.625 -3.4375 L 0.625 -1.9375 L 2.5625 -1.9375 L 2.5625 -3.4375 L 2.90625 -3.4375 L 2.90625 0 L 2.5625 0 L 2.5625 -1.671875 L 0.625 -1.671875 L 0.625 0 Z M 0.296875 0 "/></g></g></g><g fill="#453421" fill-opacity="1"><g transform="translate(73.378083, 5.888099)"><g><path d="M 0.296875 0 L 0.296875 -3.4375 L 2.640625 -3.4375 L 2.640625 -3.15625 L 0.625 -3.15625 L 0.625 -1.953125 L 2.453125 -1.953125 L 2.453125 -1.671875 L 0.625 -1.671875 L 0.625 -0.28125 L 2.6875 -0.28125 L 2.6875 0 Z M 0.296875 0 "/></g></g></g><g fill="#453421" fill-opacity="1"><g transform="translate(80.094851, 5.888099)"><g/></g></g><g fill="#453421" fill-opacity="1"><g transform="translate(84.985466, 5.888099)"><g><path d="M 0.296875 0 L 0.296875 -3.4375 L 1.625 -3.4375 C 1.84375 -3.4375 2.035156 -3.398438 2.203125 -3.328125 C 2.367188 -3.265625 2.5 -3.160156 2.59375 -3.015625 C 2.6875 -2.867188 2.734375 -2.675781 2.734375 -2.4375 C 2.734375 -2.195312 2.6875 -2 2.59375 -1.84375 C 2.5 -1.695312 2.367188 -1.585938 2.203125 -1.515625 C 2.035156 -1.453125 1.84375 -1.421875 1.625 -1.421875 L 0.625 -1.421875 L 0.625 0 Z M 0.625 -1.703125 L 1.609375 -1.703125 C 1.859375 -1.703125 2.050781 -1.757812 2.1875 -1.875 C 2.332031 -1.988281 2.40625 -2.175781 2.40625 -2.4375 C 2.40625 -2.6875 2.332031 -2.867188 2.1875 -2.984375 C 2.050781 -3.097656 1.859375 -3.15625 1.609375 -3.15625 L 0.625 -3.15625 Z M 0.625 -1.703125 "/></g></g></g><g fill="#453421" fill-opacity="1"><g transform="translate(91.678143, 5.888099)"><g><path d="M 0.296875 0 L 0.296875 -3.4375 L 2.640625 -3.4375 L 2.640625 -3.15625 L 0.625 -3.15625 L 0.625 -1.953125 L 2.453125 -1.953125 L 2.453125 -1.671875 L 0.625 -1.671875 L 0.625 -0.28125 L 2.6875 -0.28125 L 2.6875 0 Z M 0.296875 0 "/></g></g></g><g fill="#453421" fill-opacity="1"><g transform="translate(98.39491, 5.888099)"><g><path d="M 0.03125 0 L 1.328125 -3.4375 L 1.6875 -3.4375 L 2.984375 0 L 2.65625 0 L 2.265625 -1.0625 L 0.75 -1.0625 L 0.359375 0 Z M 0.84375 -1.328125 L 2.171875 -1.328125 L 1.515625 -3.109375 L 1.5 -3.109375 Z M 0.84375 -1.328125 "/></g></g></g><g fill="#453421" fill-opacity="1"><g transform="translate(105.27068, 5.888099)"><g><path d="M 1.75 0.0625 C 1.414062 0.0625 1.128906 -0.0078125 0.890625 -0.15625 C 0.660156 -0.3125 0.476562 -0.519531 0.34375 -0.78125 C 0.21875 -1.050781 0.15625 -1.363281 0.15625 -1.71875 C 0.15625 -2.0625 0.21875 -2.367188 0.34375 -2.640625 C 0.476562 -2.910156 0.664062 -3.117188 0.90625 -3.265625 C 1.144531 -3.421875 1.425781 -3.5 1.75 -3.5 C 2.007812 -3.5 2.234375 -3.445312 2.421875 -3.34375 C 2.609375 -3.25 2.757812 -3.113281 2.875 -2.9375 C 3 -2.769531 3.078125 -2.578125 3.109375 -2.359375 L 2.78125 -2.359375 C 2.75 -2.523438 2.6875 -2.671875 2.59375 -2.796875 C 2.507812 -2.929688 2.394531 -3.035156 2.25 -3.109375 C 2.101562 -3.179688 1.9375 -3.21875 1.75 -3.21875 C 1.476562 -3.21875 1.25 -3.148438 1.0625 -3.015625 C 0.875 -2.890625 0.726562 -2.710938 0.625 -2.484375 C 0.53125 -2.265625 0.484375 -2.007812 0.484375 -1.71875 C 0.484375 -1.425781 0.53125 -1.164062 0.625 -0.9375 C 0.726562 -0.71875 0.875 -0.539062 1.0625 -0.40625 C 1.25 -0.28125 1.472656 -0.21875 1.734375 -0.21875 C 1.953125 -0.21875 2.132812 -0.265625 2.28125 -0.359375 C 2.4375 -0.453125 2.554688 -0.570312 2.640625 -0.71875 C 2.734375 -0.875 2.789062 -1.039062 2.8125 -1.21875 L 3.140625 -1.21875 C 3.117188 -0.96875 3.046875 -0.742188 2.921875 -0.546875 C 2.796875 -0.359375 2.632812 -0.207031 2.4375 -0.09375 C 2.238281 0.0078125 2.007812 0.0625 1.75 0.0625 Z M 1.75 0.0625 "/></g></g></g><g fill="#453421" fill-opacity="1"><g transform="translate(112.406643, 5.888099)"><g><path d="M 0.296875 0 L 0.296875 -3.4375 L 2.640625 -3.4375 L 2.640625 -3.15625 L 0.625 -3.15625 L 0.625 -1.953125 L 2.453125 -1.953125 L 2.453125 -1.671875 L 0.625 -1.671875 L 0.625 -0.28125 L 2.6875 -0.28125 L 2.6875 0 Z M 0.296875 0 "/></g></g></g></g></g></g></g></g></svg>