<svg xmlns="http://www.w3.org/2000/svg" xmlns:xlink="http://www.w3.org/1999/xlink" width="1200" zoomAndPan="magnify" viewBox="0 0 900 374.999991" height="500" preserveAspectRatio="xMidYMid meet" version="1.0"><defs><g/><clipPath id="1f99f5dfde"><path d="M 122 233 L 811.707031 233 L 811.707031 311 L 122 311 Z M 122 233 " clip-rule="nonzero"/></clipPath><clipPath id="59c04d14ce"><path d="M 268 15.996094 L 355 15.996094 L 355 189 L 268 189 Z M 268 15.996094 " clip-rule="nonzero"/></clipPath><clipPath id="735d99e5a6"><path d="M 100.707031 183 L 274 183 L 274 265 L 100.707031 265 Z M 100.707031 183 " clip-rule="nonzero"/></clipPath><clipPath id="ecd46639f7"><rect x="0" width="614" y="0" height="32"/></clipPath></defs><g clip-path="url(#1f99f5dfde)"><path fill="#a87f59" d="M 122.246094 305.707031 C 375.75 117.160156 596.28125 369.46875 811.671875 255.351562 C 658.769531 416.769531 360.996094 158.628906 122.246094 305.707031 " fill-opacity="1" fill-rule="evenodd"/></g><g clip-path="url(#59c04d14ce)"><path fill="#a87f59" d="M 280.035156 188.289062 C 272.355469 169.277344 268.125 148.503906 268.125 126.738281 C 268.125 84.050781 284.394531 45.167969 311.0625 15.9375 C 337.734375 45.167969 354.003906 84.050781 354.003906 126.738281 C 354.003906 148.503906 349.769531 169.277344 342.089844 188.289062 C 346.355469 174.679688 348.65625 160.203125 348.65625 145.1875 C 348.65625 107.8125 334.414062 73.769531 311.0625 48.179688 C 287.714844 73.769531 273.46875 107.8125 273.46875 145.1875 C 273.46875 160.203125 275.773438 174.679688 280.035156 188.289062 " fill-opacity="1" fill-rule="evenodd"/></g><path fill="#a87f59" d="M 265.191406 208.894531 C 249.035156 196.269531 234.984375 180.394531 224.101562 161.546875 C 202.757812 124.578125 197.402344 82.769531 205.886719 44.121094 C 243.597656 56.097656 277.128906 81.640625 298.472656 118.605469 C 309.355469 137.457031 316.074219 157.5625 318.933594 177.867188 C 315.820312 163.949219 310.574219 150.261719 303.066406 137.253906 C 284.382812 104.890625 255.023438 82.527344 222.003906 72.039062 C 214.578125 105.878906 219.265625 142.484375 237.953125 174.847656 C 245.460938 187.851562 254.695312 199.238281 265.191406 208.894531 " fill-opacity="1" fill-rule="evenodd"/><path fill="#a87f59" d="M 253.457031 232.601562 C 236.289062 229.179688 219.378906 222.9375 203.378906 213.703125 C 166.410156 192.359375 140.867188 158.828125 128.890625 121.117188 C 167.539062 112.632812 209.347656 117.988281 246.316406 139.332031 C 265.167969 150.214844 281.039062 164.265625 293.664062 180.421875 C 284.011719 169.921875 272.625 160.691406 259.621094 153.183594 C 227.253906 134.496094 190.648438 129.808594 156.8125 137.238281 C 167.296875 170.253906 189.660156 199.609375 222.03125 218.296875 C 232.652344 224.429688 243.734375 229.054688 255.023438 232.238281 C 254.5 232.359375 253.976562 232.476562 253.457031 232.601562 " fill-opacity="1" fill-rule="evenodd"/><g clip-path="url(#735d99e5a6)"><path fill="#a87f59" d="M 171.238281 264.261719 C 144.535156 257.535156 120.425781 244.28125 100.707031 226.292969 C 129.941406 199.621094 168.824219 183.355469 211.511719 183.355469 C 233.277344 183.355469 254.046875 187.585938 273.0625 195.265625 C 259.453125 191.003906 244.976562 188.699219 229.957031 188.699219 C 192.585938 188.699219 158.539062 202.945312 132.949219 226.292969 C 147.945312 239.980469 165.847656 250.53125 185.621094 256.929688 C 180.839844 259.242188 176.042969 261.664062 171.238281 264.261719 " fill-opacity="1" fill-rule="evenodd"/></g><path fill="#a87f59" d="M 303.195312 177.867188 C 306.050781 157.5625 312.773438 137.457031 323.65625 118.605469 C 345 81.640625 378.53125 56.097656 416.242188 44.117188 C 424.726562 82.769531 419.371094 124.578125 398.027344 161.546875 C 387.144531 180.394531 373.09375 196.269531 356.933594 208.894531 C 367.433594 199.238281 376.667969 187.851562 384.175781 174.847656 C 402.863281 142.484375 407.550781 105.878906 400.125 72.039062 C 367.105469 82.527344 337.75 104.890625 319.0625 137.253906 C 311.550781 150.257812 306.308594 163.949219 303.195312 177.867188 " fill-opacity="1" fill-rule="evenodd"/><path fill="#a87f59" d="M 328.464844 180.417969 C 341.085938 164.265625 356.964844 150.210938 375.8125 139.332031 C 412.78125 117.988281 454.589844 112.632812 493.238281 121.113281 C 481.261719 158.824219 455.71875 192.359375 418.746094 213.703125 C 409.761719 218.886719 400.488281 223.132812 391.042969 226.460938 C 389.09375 226.238281 387.144531 226.007812 385.195312 225.800781 C 390.242188 223.613281 395.21875 221.113281 400.101562 218.296875 C 432.464844 199.609375 454.832031 170.253906 465.316406 137.238281 C 431.480469 129.808594 394.875 134.496094 362.507812 153.183594 C 349.503906 160.691406 338.117188 169.921875 328.464844 180.417969 " fill-opacity="1" fill-rule="evenodd"/><path fill="#a87f59" d="M 349.066406 195.265625 C 368.078125 187.585938 388.855469 183.355469 410.621094 183.355469 C 453.304688 183.355469 492.191406 199.621094 521.421875 226.292969 C 513.429688 233.582031 504.714844 240.09375 495.402344 245.707031 C 487.339844 243.871094 479.253906 242.058594 471.148438 240.308594 C 477.53125 236.113281 483.558594 231.417969 489.179688 226.292969 C 463.589844 202.9375 429.546875 188.699219 392.171875 188.699219 C 377.15625 188.699219 362.679688 191 349.066406 195.265625 " fill-opacity="1" fill-rule="evenodd"/><path fill="#a87f59" d="M 311.066406 186.921875 C 331.820312 186.921875 348.820312 202.980469 350.324219 223.351562 C 348.035156 223.273438 345.738281 223.238281 343.441406 223.199219 C 341.882812 206.691406 327.984375 193.769531 311.066406 193.769531 C 293.101562 193.769531 278.542969 208.332031 278.542969 226.292969 C 278.542969 226.734375 278.554688 227.171875 278.574219 227.605469 C 276.308594 227.96875 274.042969 228.324219 271.773438 228.730469 C 271.722656 227.925781 271.699219 227.113281 271.699219 226.292969 C 271.695312 204.550781 289.320312 186.921875 311.066406 186.921875 " fill-opacity="1" fill-rule="evenodd"/><path fill="#a87f59" d="M 151.515625 302.925781 C 293.902344 232.472656 440.5625 308.8125 589.160156 312.316406 C 440.746094 320.996094 292.671875 260.101562 151.515625 302.925781 " fill-opacity="1" fill-rule="evenodd"/><g transform="matrix(1, 0, 0, 1, 114, 334)"><g clip-path="url(#ecd46639f7)"><g fill="#ffffff" fill-opacity="1"><g transform="translate(2.131418, 25.288269)"><g><path d="M 1.515625 0 L 1.515625 -17.8125 L 8.28125 -17.8125 C 9.988281 -17.8125 11.394531 -17.421875 12.5 -16.640625 C 13.601562 -15.859375 14.425781 -14.796875 14.96875 -13.453125 C 15.507812 -12.109375 15.78125 -10.570312 15.78125 -8.84375 C 15.78125 -7.113281 15.503906 -5.582031 14.953125 -4.25 C 14.398438 -2.925781 13.566406 -1.882812 12.453125 -1.125 C 11.347656 -0.375 9.9375 0 8.21875 0 Z M 3.21875 -1.453125 L 8.03125 -1.453125 C 10 -1.453125 11.492188 -2.109375 12.515625 -3.421875 C 13.546875 -4.742188 14.0625 -6.550781 14.0625 -8.84375 C 14.0625 -11.132812 13.566406 -12.960938 12.578125 -14.328125 C 11.597656 -15.691406 10.125 -16.375 8.15625 -16.375 L 3.21875 -16.375 Z M 3.21875 -1.453125 "/></g></g></g><g fill="#ffffff" fill-opacity="1"><g transform="translate(38.671783, 25.288269)"><g><path d="M 1.59375 0 L 1.59375 -17.8125 L 3.3125 -17.8125 L 3.3125 0 Z M 1.59375 0 "/></g></g></g><g fill="#ffffff" fill-opacity="1"><g transform="translate(63.497313, 25.288269)"><g><path d="M 7.921875 0.296875 C 6.554688 0.296875 5.328125 0.0703125 4.234375 -0.375 C 3.140625 -0.820312 2.257812 -1.492188 1.59375 -2.390625 C 0.925781 -3.285156 0.5625 -4.40625 0.5 -5.75 L 2.21875 -5.75 C 2.300781 -4.238281 2.859375 -3.09375 3.890625 -2.3125 C 4.929688 -1.53125 6.273438 -1.140625 7.921875 -1.140625 C 9.429688 -1.140625 10.5625 -1.492188 11.3125 -2.203125 C 12.0625 -2.910156 12.445312 -3.742188 12.46875 -4.703125 C 12.46875 -5.585938 12.238281 -6.28125 11.78125 -6.78125 C 11.332031 -7.28125 10.679688 -7.671875 9.828125 -7.953125 C 8.972656 -8.234375 7.921875 -8.488281 6.671875 -8.71875 C 5.566406 -8.9375 4.597656 -9.226562 3.765625 -9.59375 C 2.929688 -9.957031 2.285156 -10.457031 1.828125 -11.09375 C 1.367188 -11.738281 1.140625 -12.5625 1.140625 -13.5625 C 1.140625 -14.59375 1.398438 -15.441406 1.921875 -16.109375 C 2.453125 -16.785156 3.171875 -17.289062 4.078125 -17.625 C 4.984375 -17.957031 6 -18.125 7.125 -18.125 C 8.351562 -18.125 9.441406 -17.914062 10.390625 -17.5 C 11.335938 -17.09375 12.09375 -16.5 12.65625 -15.71875 C 13.21875 -14.9375 13.535156 -13.992188 13.609375 -12.890625 L 11.890625 -12.890625 C 11.773438 -14.046875 11.320312 -14.96875 10.53125 -15.65625 C 9.738281 -16.351562 8.601562 -16.703125 7.125 -16.703125 C 5.863281 -16.703125 4.835938 -16.429688 4.046875 -15.890625 C 3.253906 -15.347656 2.859375 -14.59375 2.859375 -13.625 C 2.859375 -12.851562 3.054688 -12.238281 3.453125 -11.78125 C 3.859375 -11.332031 4.429688 -10.988281 5.171875 -10.75 C 5.910156 -10.507812 6.800781 -10.289062 7.84375 -10.09375 C 9.15625 -9.84375 10.28125 -9.515625 11.21875 -9.109375 C 12.164062 -8.710938 12.894531 -8.175781 13.40625 -7.5 C 13.925781 -6.820312 14.1875 -5.925781 14.1875 -4.8125 C 14.1875 -3.84375 13.9375 -2.972656 13.4375 -2.203125 C 12.945312 -1.429688 12.238281 -0.820312 11.3125 -0.375 C 10.382812 0.0703125 9.253906 0.296875 7.921875 0.296875 Z M 7.921875 0.296875 "/></g></g></g><g fill="#ffffff" fill-opacity="1"><g transform="translate(98.417554, 25.288269)"><g><path d="M 9.046875 0.296875 C 7.347656 0.296875 5.882812 -0.0859375 4.65625 -0.859375 C 3.425781 -1.628906 2.476562 -2.707031 1.8125 -4.09375 C 1.15625 -5.488281 0.828125 -7.085938 0.828125 -8.890625 C 0.828125 -10.691406 1.15625 -12.285156 1.8125 -13.671875 C 2.476562 -15.054688 3.429688 -16.144531 4.671875 -16.9375 C 5.910156 -17.726562 7.382812 -18.125 9.09375 -18.125 C 10.40625 -18.125 11.550781 -17.867188 12.53125 -17.359375 C 13.507812 -16.847656 14.304688 -16.148438 14.921875 -15.265625 C 15.535156 -14.390625 15.925781 -13.375 16.09375 -12.21875 L 14.375 -12.21875 C 14.25 -13.0625 13.953125 -13.820312 13.484375 -14.5 C 13.015625 -15.1875 12.40625 -15.722656 11.65625 -16.109375 C 10.914062 -16.503906 10.046875 -16.703125 9.046875 -16.703125 C 7.628906 -16.703125 6.4375 -16.359375 5.46875 -15.671875 C 4.5 -14.992188 3.769531 -14.066406 3.28125 -12.890625 C 2.789062 -11.722656 2.546875 -10.390625 2.546875 -8.890625 C 2.546875 -7.378906 2.789062 -6.039062 3.28125 -4.875 C 3.78125 -3.71875 4.507812 -2.804688 5.46875 -2.140625 C 6.4375 -1.472656 7.613281 -1.140625 9 -1.140625 C 10.09375 -1.140625 11.035156 -1.375 11.828125 -1.84375 C 12.617188 -2.320312 13.242188 -2.953125 13.703125 -3.734375 C 14.171875 -4.515625 14.460938 -5.363281 14.578125 -6.28125 L 16.296875 -6.28125 C 16.148438 -4.988281 15.757812 -3.847656 15.125 -2.859375 C 14.5 -1.867188 13.664062 -1.09375 12.625 -0.53125 C 11.582031 0.0195312 10.390625 0.296875 9.046875 0.296875 Z M 9.046875 0.296875 "/></g></g></g><g fill="#ffffff" fill-opacity="1"><g transform="translate(135.331812, 25.288269)"><g><path d="M 9.171875 0.296875 C 7.472656 0.296875 6 -0.09375 4.75 -0.875 C 3.507812 -1.664062 2.546875 -2.753906 1.859375 -4.140625 C 1.171875 -5.535156 0.828125 -7.128906 0.828125 -8.921875 C 0.828125 -10.710938 1.171875 -12.296875 1.859375 -13.671875 C 2.546875 -15.054688 3.507812 -16.144531 4.75 -16.9375 C 6 -17.726562 7.472656 -18.125 9.171875 -18.125 C 10.867188 -18.125 12.34375 -17.726562 13.59375 -16.9375 C 14.84375 -16.144531 15.804688 -15.054688 16.484375 -13.671875 C 17.171875 -12.296875 17.515625 -10.710938 17.515625 -8.921875 C 17.515625 -7.128906 17.171875 -5.535156 16.484375 -4.140625 C 15.804688 -2.753906 14.84375 -1.664062 13.59375 -0.875 C 12.34375 -0.09375 10.867188 0.296875 9.171875 0.296875 Z M 9.171875 -1.140625 C 10.503906 -1.140625 11.660156 -1.46875 12.640625 -2.125 C 13.628906 -2.78125 14.398438 -3.691406 14.953125 -4.859375 C 15.515625 -6.035156 15.796875 -7.390625 15.796875 -8.921875 C 15.796875 -10.453125 15.515625 -11.800781 14.953125 -12.96875 C 14.398438 -14.144531 13.628906 -15.0625 12.640625 -15.71875 C 11.660156 -16.375 10.503906 -16.703125 9.171875 -16.703125 C 7.859375 -16.703125 6.703125 -16.375 5.703125 -15.71875 C 4.710938 -15.0625 3.9375 -14.144531 3.375 -12.96875 C 2.820312 -11.800781 2.546875 -10.453125 2.546875 -8.921875 C 2.546875 -7.390625 2.820312 -6.035156 3.375 -4.859375 C 3.9375 -3.691406 4.710938 -2.78125 5.703125 -2.125 C 6.703125 -1.46875 7.859375 -1.140625 9.171875 -1.140625 Z M 9.171875 -1.140625 "/></g></g></g><g fill="#ffffff" fill-opacity="1"><g transform="translate(173.616955, 25.288269)"><g><path d="M 6.734375 0 L 0.15625 -17.8125 L 1.96875 -17.8125 L 7.53125 -2.390625 L 7.578125 -2.390625 L 13.140625 -17.8125 L 14.953125 -17.8125 L 8.375 0 Z M 6.734375 0 "/></g></g></g><g fill="#ffffff" fill-opacity="1"><g transform="translate(208.661815, 25.288269)"><g><path d="M 1.515625 0 L 1.515625 -17.8125 L 13.6875 -17.8125 L 13.6875 -16.375 L 3.234375 -16.375 L 3.234375 -10.125 L 12.703125 -10.125 L 12.703125 -8.671875 L 3.234375 -8.671875 L 3.234375 -1.453125 L 13.90625 -1.453125 L 13.90625 0 Z M 1.515625 0 "/></g></g></g><g fill="#ffffff" fill-opacity="1"><g transform="translate(243.40758, 25.288269)"><g><path d="M 1.515625 0 L 1.515625 -17.8125 L 8.84375 -17.8125 C 10.5625 -17.8125 11.929688 -17.398438 12.953125 -16.578125 C 13.972656 -15.765625 14.484375 -14.5 14.484375 -12.78125 C 14.484375 -11.519531 14.132812 -10.503906 13.4375 -9.734375 C 12.738281 -8.972656 11.796875 -8.476562 10.609375 -8.25 L 10.609375 -8.203125 C 11.359375 -8.097656 11.960938 -7.835938 12.421875 -7.421875 C 12.878906 -7.003906 13.226562 -6.5 13.46875 -5.90625 C 13.707031 -5.320312 13.878906 -4.707031 13.984375 -4.0625 C 14.097656 -3.425781 14.179688 -2.820312 14.234375 -2.25 C 14.285156 -1.675781 14.347656 -1.195312 14.421875 -0.8125 C 14.492188 -0.4375 14.613281 -0.222656 14.78125 -0.171875 L 14.78125 0 L 12.953125 0 C 12.804688 -0.132812 12.703125 -0.40625 12.640625 -0.8125 C 12.585938 -1.21875 12.539062 -1.703125 12.5 -2.265625 C 12.457031 -2.828125 12.378906 -3.40625 12.265625 -4 C 12.148438 -4.601562 11.960938 -5.164062 11.703125 -5.6875 C 11.441406 -6.21875 11.070312 -6.644531 10.59375 -6.96875 C 10.113281 -7.289062 9.472656 -7.453125 8.671875 -7.453125 L 3.234375 -7.453125 L 3.234375 0 Z M 3.234375 -8.875 L 8.28125 -8.875 C 9.601562 -8.875 10.679688 -9.179688 11.515625 -9.796875 C 12.347656 -10.421875 12.765625 -11.367188 12.765625 -12.640625 C 12.765625 -13.960938 12.378906 -14.914062 11.609375 -15.5 C 10.847656 -16.082031 9.738281 -16.375 8.28125 -16.375 L 3.234375 -16.375 Z M 3.234375 -8.875 "/></g></g></g><g fill="#ffffff" fill-opacity="1"><g transform="translate(278.851243, 25.288269)"><g/></g></g><g fill="#ffffff" fill-opacity="1"><g transform="translate(304.150343, 25.288269)"><g><path d="M 6.546875 0 L 6.546875 -16.375 L 0.46875 -16.375 L 0.46875 -17.8125 L 14.328125 -17.8125 L 14.328125 -16.375 L 8.28125 -16.375 L 8.28125 0 Z M 6.546875 0 "/></g></g></g><g fill="#ffffff" fill-opacity="1"><g transform="translate(338.896108, 25.288269)"><g><path d="M 1.515625 0 L 1.515625 -17.8125 L 3.234375 -17.8125 L 3.234375 -10.0625 L 13.3125 -10.0625 L 13.3125 -17.8125 L 15.03125 -17.8125 L 15.03125 0 L 13.3125 0 L 13.3125 -8.640625 L 3.234375 -8.640625 L 3.234375 0 Z M 1.515625 0 "/></g></g></g><g fill="#ffffff" fill-opacity="1"><g transform="translate(375.38665, 25.288269)"><g><path d="M 1.515625 0 L 1.515625 -17.8125 L 13.6875 -17.8125 L 13.6875 -16.375 L 3.234375 -16.375 L 3.234375 -10.125 L 12.703125 -10.125 L 12.703125 -8.671875 L 3.234375 -8.671875 L 3.234375 -1.453125 L 13.90625 -1.453125 L 13.90625 0 Z M 1.515625 0 "/></g></g></g><g fill="#ffffff" fill-opacity="1"><g transform="translate(410.132416, 25.288269)"><g/></g></g><g fill="#ffffff" fill-opacity="1"><g transform="translate(435.431515, 25.288269)"><g><path d="M 1.515625 0 L 1.515625 -17.8125 L 8.421875 -17.8125 C 9.566406 -17.8125 10.566406 -17.632812 11.421875 -17.28125 C 12.273438 -16.9375 12.941406 -16.382812 13.421875 -15.625 C 13.910156 -14.863281 14.15625 -13.859375 14.15625 -12.609375 C 14.15625 -11.359375 13.910156 -10.351562 13.421875 -9.59375 C 12.941406 -8.832031 12.273438 -8.273438 11.421875 -7.921875 C 10.566406 -7.578125 9.566406 -7.40625 8.421875 -7.40625 L 3.234375 -7.40625 L 3.234375 0 Z M 3.234375 -8.828125 L 8.375 -8.828125 C 9.625 -8.828125 10.613281 -9.125 11.34375 -9.71875 C 12.070312 -10.3125 12.4375 -11.273438 12.4375 -12.609375 C 12.4375 -13.941406 12.070312 -14.898438 11.34375 -15.484375 C 10.613281 -16.078125 9.625 -16.375 8.375 -16.375 L 3.234375 -16.375 Z M 3.234375 -8.828125 "/></g></g></g><g fill="#ffffff" fill-opacity="1"><g transform="translate(470.05266, 25.288269)"><g><path d="M 1.515625 0 L 1.515625 -17.8125 L 13.6875 -17.8125 L 13.6875 -16.375 L 3.234375 -16.375 L 3.234375 -10.125 L 12.703125 -10.125 L 12.703125 -8.671875 L 3.234375 -8.671875 L 3.234375 -1.453125 L 13.90625 -1.453125 L 13.90625 0 Z M 1.515625 0 "/></g></g></g><g fill="#ffffff" fill-opacity="1"><g transform="translate(504.798426, 25.288269)"><g><path d="M 0.15625 0 L 6.875 -17.8125 L 8.71875 -17.8125 L 15.46875 0 L 13.75 0 L 11.71875 -5.484375 L 3.90625 -5.484375 L 1.875 0 Z M 4.359375 -6.859375 L 11.265625 -6.859375 L 7.828125 -16.09375 L 7.78125 -16.09375 Z M 4.359375 -6.859375 "/></g></g></g><g fill="#ffffff" fill-opacity="1"><g transform="translate(540.36671, 25.288269)"><g><path d="M 9.046875 0.296875 C 7.347656 0.296875 5.882812 -0.0859375 4.65625 -0.859375 C 3.425781 -1.628906 2.476562 -2.707031 1.8125 -4.09375 C 1.15625 -5.488281 0.828125 -7.085938 0.828125 -8.890625 C 0.828125 -10.691406 1.15625 -12.285156 1.8125 -13.671875 C 2.476562 -15.054688 3.429688 -16.144531 4.671875 -16.9375 C 5.910156 -17.726562 7.382812 -18.125 9.09375 -18.125 C 10.40625 -18.125 11.550781 -17.867188 12.53125 -17.359375 C 13.507812 -16.847656 14.304688 -16.148438 14.921875 -15.265625 C 15.535156 -14.390625 15.925781 -13.375 16.09375 -12.21875 L 14.375 -12.21875 C 14.25 -13.0625 13.953125 -13.820312 13.484375 -14.5 C 13.015625 -15.1875 12.40625 -15.722656 11.65625 -16.109375 C 10.914062 -16.503906 10.046875 -16.703125 9.046875 -16.703125 C 7.628906 -16.703125 6.4375 -16.359375 5.46875 -15.671875 C 4.5 -14.992188 3.769531 -14.066406 3.28125 -12.890625 C 2.789062 -11.722656 2.546875 -10.390625 2.546875 -8.890625 C 2.546875 -7.378906 2.789062 -6.039062 3.28125 -4.875 C 3.78125 -3.71875 4.507812 -2.804688 5.46875 -2.140625 C 6.4375 -1.472656 7.613281 -1.140625 9 -1.140625 C 10.09375 -1.140625 11.035156 -1.375 11.828125 -1.84375 C 12.617188 -2.320312 13.242188 -2.953125 13.703125 -3.734375 C 14.171875 -4.515625 14.460938 -5.363281 14.578125 -6.28125 L 16.296875 -6.28125 C 16.148438 -4.988281 15.757812 -3.847656 15.125 -2.859375 C 14.5 -1.867188 13.664062 -1.09375 12.625 -0.53125 C 11.582031 0.0195312 10.390625 0.296875 9.046875 0.296875 Z M 9.046875 0.296875 "/></g></g></g><g fill="#ffffff" fill-opacity="1"><g transform="translate(577.280967, 25.288269)"><g><path d="M 1.515625 0 L 1.515625 -17.8125 L 13.6875 -17.8125 L 13.6875 -16.375 L 3.234375 -16.375 L 3.234375 -10.125 L 12.703125 -10.125 L 12.703125 -8.671875 L 3.234375 -8.671875 L 3.234375 -1.453125 L 13.90625 -1.453125 L 13.90625 0 Z M 1.515625 0 "/></g></g></g></g></g></svg>