<svg xmlns="http://www.w3.org/2000/svg" xmlns:xlink="http://www.w3.org/1999/xlink" width="1200" zoomAndPan="magnify" viewBox="0 0 900 374.999991" height="500" preserveAspectRatio="xMidYMid meet" version="1.0"><defs><g/><clipPath id="cc629d2613"><path d="M 122 233 L 811.707031 233 L 811.707031 311 L 122 311 Z M 122 233 " clip-rule="nonzero"/></clipPath><clipPath id="76046a1467"><path d="M 268 15.996094 L 355 15.996094 L 355 189 L 268 189 Z M 268 15.996094 " clip-rule="nonzero"/></clipPath><clipPath id="48f899916b"><path d="M 100.707031 183 L 274 183 L 274 265 L 100.707031 265 Z M 100.707031 183 " clip-rule="nonzero"/></clipPath><clipPath id="c3b0e5be8e"><rect x="0" width="424" y="0" height="22"/></clipPath></defs><g clip-path="url(#cc629d2613)"><path fill="#a87f59" d="M 122.246094 305.707031 C 375.75 117.160156 596.28125 369.46875 811.671875 255.351562 C 658.769531 416.769531 360.996094 158.628906 122.246094 305.707031 " fill-opacity="1" fill-rule="evenodd"/></g><g clip-path="url(#76046a1467)"><path fill="#a87f59" d="M 280.035156 188.289062 C 272.355469 169.277344 268.125 148.503906 268.125 126.738281 C 268.125 84.050781 284.394531 45.167969 311.0625 15.9375 C 337.734375 45.167969 354.003906 84.050781 354.003906 126.738281 C 354.003906 148.503906 349.769531 169.277344 342.089844 188.289062 C 346.355469 174.679688 348.65625 160.203125 348.65625 145.1875 C 348.65625 107.8125 334.414062 73.769531 311.0625 48.179688 C 287.714844 73.769531 273.46875 107.8125 273.46875 145.1875 C 273.46875 160.203125 275.773438 174.679688 280.035156 188.289062 " fill-opacity="1" fill-rule="evenodd"/></g><path fill="#a87f59" d="M 265.191406 208.894531 C 249.035156 196.269531 234.984375 180.394531 224.101562 161.546875 C 202.757812 124.578125 197.402344 82.769531 205.886719 44.121094 C 243.597656 56.097656 277.128906 81.640625 298.472656 118.605469 C 309.355469 137.457031 316.074219 157.5625 318.933594 177.867188 C 315.820312 163.949219 310.574219 150.261719 303.066406 137.253906 C 284.382812 104.890625 255.023438 82.527344 222.003906 72.039062 C 214.578125 105.878906 219.265625 142.484375 237.953125 174.847656 C 245.460938 187.851562 254.695312 199.238281 265.191406 208.894531 " fill-opacity="1" fill-rule="evenodd"/><path fill="#a87f59" d="M 253.457031 232.601562 C 236.289062 229.179688 219.378906 222.9375 203.378906 213.703125 C 166.410156 192.359375 140.867188 158.828125 128.890625 121.117188 C 167.539062 112.632812 209.347656 117.988281 246.316406 139.332031 C 265.167969 150.214844 281.039062 164.265625 293.664062 180.421875 C 284.011719 169.921875 272.625 160.691406 259.621094 153.183594 C 227.253906 134.496094 190.648438 129.808594 156.8125 137.238281 C 167.296875 170.253906 189.660156 199.609375 222.03125 218.296875 C 232.652344 224.429688 243.734375 229.054688 255.023438 232.238281 C 254.5 232.359375 253.976562 232.476562 253.457031 232.601562 " fill-opacity="1" fill-rule="evenodd"/><g clip-path="url(#48f899916b)"><path fill="#a87f59" d="M 171.238281 264.261719 C 144.535156 257.535156 120.425781 244.28125 100.707031 226.292969 C 129.941406 199.621094 168.824219 183.355469 211.511719 183.355469 C 233.277344 183.355469 254.046875 187.585938 273.0625 195.265625 C 259.453125 191.003906 244.976562 188.699219 229.957031 188.699219 C 192.585938 188.699219 158.539062 202.945312 132.949219 226.292969 C 147.945312 239.980469 165.847656 250.53125 185.621094 256.929688 C 180.839844 259.242188 176.042969 261.664062 171.238281 264.261719 " fill-opacity="1" fill-rule="evenodd"/></g><path fill="#a87f59" d="M 303.195312 177.867188 C 306.050781 157.5625 312.773438 137.457031 323.65625 118.605469 C 345 81.640625 378.53125 56.097656 416.242188 44.117188 C 424.726562 82.769531 419.371094 124.578125 398.027344 161.546875 C 387.144531 180.394531 373.09375 196.269531 356.933594 208.894531 C 367.433594 199.238281 376.667969 187.851562 384.175781 174.847656 C 402.863281 142.484375 407.550781 105.878906 400.125 72.039062 C 367.105469 82.527344 337.75 104.890625 319.0625 137.253906 C 311.550781 150.257812 306.308594 163.949219 303.195312 177.867188 " fill-opacity="1" fill-rule="evenodd"/><path fill="#a87f59" d="M 328.464844 180.417969 C 341.085938 164.265625 356.964844 150.210938 375.8125 139.332031 C 412.78125 117.988281 454.589844 112.632812 493.238281 121.113281 C 481.261719 158.824219 455.71875 192.359375 418.746094 213.703125 C 409.761719 218.886719 400.488281 223.132812 391.042969 226.460938 C 389.09375 226.238281 387.144531 226.007812 385.195312 225.800781 C 390.242188 223.613281 395.21875 221.113281 400.101562 218.296875 C 432.464844 199.609375 454.832031 170.253906 465.316406 137.238281 C 431.480469 129.808594 394.875 134.496094 362.507812 153.183594 C 349.503906 160.691406 338.117188 169.921875 328.464844 180.417969 " fill-opacity="1" fill-rule="evenodd"/><path fill="#a87f59" d="M 349.066406 195.265625 C 368.078125 187.585938 388.855469 183.355469 410.621094 183.355469 C 453.304688 183.355469 492.191406 199.621094 521.421875 226.292969 C 513.429688 233.582031 504.714844 240.09375 495.402344 245.707031 C 487.339844 243.871094 479.253906 242.058594 471.148438 240.308594 C 477.53125 236.113281 483.558594 231.417969 489.179688 226.292969 C 463.589844 202.9375 429.546875 188.699219 392.171875 188.699219 C 377.15625 188.699219 362.679688 191 349.066406 195.265625 " fill-opacity="1" fill-rule="evenodd"/><path fill="#a87f59" d="M 311.066406 186.921875 C 331.820312 186.921875 348.820312 202.980469 350.324219 223.351562 C 348.035156 223.273438 345.738281 223.238281 343.441406 223.199219 C 341.882812 206.691406 327.984375 193.769531 311.066406 193.769531 C 293.101562 193.769531 278.542969 208.332031 278.542969 226.292969 C 278.542969 226.734375 278.554688 227.171875 278.574219 227.605469 C 276.308594 227.96875 274.042969 228.324219 271.773438 228.730469 C 271.722656 227.925781 271.699219 227.113281 271.699219 226.292969 C 271.695312 204.550781 289.320312 186.921875 311.066406 186.921875 " fill-opacity="1" fill-rule="evenodd"/><path fill="#a87f59" d="M 151.515625 302.925781 C 293.902344 232.472656 440.5625 308.8125 589.160156 312.316406 C 440.746094 320.996094 292.671875 260.101562 151.515625 302.925781 " fill-opacity="1" fill-rule="evenodd"/><g transform="matrix(1, 0, 0, 1, 110, 335)"><g clip-path="url(#c3b0e5be8e)"><g fill="#453421" fill-opacity="1"><g transform="translate(1.367764, 17.359358)"><g><path d="M 1.046875 0 L 1.046875 -12.3125 L 5.71875 -12.3125 C 6.894531 -12.3125 7.863281 -12.039062 8.625 -11.5 C 9.394531 -10.957031 9.96875 -10.222656 10.34375 -9.296875 C 10.71875 -8.367188 10.90625 -7.304688 10.90625 -6.109375 C 10.90625 -4.921875 10.710938 -3.863281 10.328125 -2.9375 C 9.953125 -2.019531 9.378906 -1.300781 8.609375 -0.78125 C 7.835938 -0.257812 6.863281 0 5.6875 0 Z M 2.21875 -1 L 5.546875 -1 C 6.910156 -1 7.945312 -1.453125 8.65625 -2.359375 C 9.363281 -3.273438 9.71875 -4.523438 9.71875 -6.109375 C 9.71875 -7.691406 9.375 -8.953125 8.6875 -9.890625 C 8.007812 -10.835938 6.988281 -11.3125 5.625 -11.3125 L 2.21875 -11.3125 Z M 2.21875 -1 "/></g></g></g><g fill="#453421" fill-opacity="1"><g transform="translate(26.621608, 17.359358)"><g><path d="M 1.109375 0 L 1.109375 -12.3125 L 2.296875 -12.3125 L 2.296875 0 Z M 1.109375 0 "/></g></g></g><g fill="#453421" fill-opacity="1"><g transform="translate(43.779074, 17.359358)"><g><path d="M 5.46875 0.203125 C 4.53125 0.203125 3.679688 0.0507812 2.921875 -0.25 C 2.171875 -0.5625 1.5625 -1.023438 1.09375 -1.640625 C 0.632812 -2.265625 0.382812 -3.046875 0.34375 -3.984375 L 1.53125 -3.984375 C 1.59375 -2.929688 1.976562 -2.132812 2.6875 -1.59375 C 3.40625 -1.0625 4.332031 -0.796875 5.46875 -0.796875 C 6.519531 -0.796875 7.300781 -1.035156 7.8125 -1.515625 C 8.332031 -2.003906 8.597656 -2.582031 8.609375 -3.25 C 8.609375 -3.863281 8.453125 -4.34375 8.140625 -4.6875 C 7.828125 -5.03125 7.375 -5.296875 6.78125 -5.484375 C 6.195312 -5.679688 5.472656 -5.863281 4.609375 -6.03125 C 3.847656 -6.175781 3.175781 -6.375 2.59375 -6.625 C 2.019531 -6.882812 1.578125 -7.234375 1.265625 -7.671875 C 0.953125 -8.109375 0.796875 -8.671875 0.796875 -9.359375 C 0.796875 -10.078125 0.972656 -10.664062 1.328125 -11.125 C 1.691406 -11.59375 2.1875 -11.941406 2.8125 -12.171875 C 3.4375 -12.398438 4.140625 -12.515625 4.921875 -12.515625 C 5.773438 -12.515625 6.523438 -12.375 7.171875 -12.09375 C 7.828125 -11.8125 8.347656 -11.398438 8.734375 -10.859375 C 9.128906 -10.328125 9.351562 -9.675781 9.40625 -8.90625 L 8.21875 -8.90625 C 8.132812 -9.707031 7.816406 -10.34375 7.265625 -10.8125 C 6.722656 -11.289062 5.941406 -11.53125 4.921875 -11.53125 C 4.046875 -11.53125 3.335938 -11.34375 2.796875 -10.96875 C 2.253906 -10.601562 1.984375 -10.085938 1.984375 -9.421875 C 1.984375 -8.878906 2.117188 -8.453125 2.390625 -8.140625 C 2.671875 -7.828125 3.066406 -7.585938 3.578125 -7.421875 C 4.085938 -7.265625 4.703125 -7.113281 5.421875 -6.96875 C 6.328125 -6.800781 7.101562 -6.578125 7.75 -6.296875 C 8.40625 -6.023438 8.910156 -5.65625 9.265625 -5.1875 C 9.617188 -4.71875 9.796875 -4.097656 9.796875 -3.328125 C 9.796875 -2.660156 9.625 -2.054688 9.28125 -1.515625 C 8.945312 -0.984375 8.457031 -0.5625 7.8125 -0.25 C 7.175781 0.0507812 6.394531 0.203125 5.46875 0.203125 Z M 5.46875 0.203125 "/></g></g></g><g fill="#453421" fill-opacity="1"><g transform="translate(67.913214, 17.359358)"><g><path d="M 6.25 0.203125 C 5.082031 0.203125 4.070312 -0.0625 3.21875 -0.59375 C 2.375 -1.125 1.71875 -1.867188 1.25 -2.828125 C 0.789062 -3.785156 0.5625 -4.890625 0.5625 -6.140625 C 0.5625 -7.378906 0.789062 -8.476562 1.25 -9.4375 C 1.71875 -10.394531 2.378906 -11.144531 3.234375 -11.6875 C 4.085938 -12.238281 5.101562 -12.515625 6.28125 -12.515625 C 7.1875 -12.515625 7.976562 -12.335938 8.65625 -11.984375 C 9.332031 -11.640625 9.882812 -11.160156 10.3125 -10.546875 C 10.738281 -9.941406 11.007812 -9.238281 11.125 -8.4375 L 9.9375 -8.4375 C 9.84375 -9.019531 9.632812 -9.546875 9.3125 -10.015625 C 8.988281 -10.492188 8.566406 -10.863281 8.046875 -11.125 C 7.535156 -11.394531 6.9375 -11.53125 6.25 -11.53125 C 5.269531 -11.53125 4.441406 -11.296875 3.765625 -10.828125 C 3.097656 -10.359375 2.59375 -9.71875 2.25 -8.90625 C 1.914062 -8.101562 1.75 -7.179688 1.75 -6.140625 C 1.75 -5.097656 1.921875 -4.175781 2.265625 -3.375 C 2.617188 -2.570312 3.125 -1.941406 3.78125 -1.484375 C 4.445312 -1.023438 5.257812 -0.796875 6.21875 -0.796875 C 6.976562 -0.796875 7.628906 -0.957031 8.171875 -1.28125 C 8.710938 -1.613281 9.144531 -2.046875 9.46875 -2.578125 C 9.789062 -3.117188 9.992188 -3.707031 10.078125 -4.34375 L 11.265625 -4.34375 C 11.160156 -3.445312 10.890625 -2.65625 10.453125 -1.96875 C 10.015625 -1.289062 9.4375 -0.757812 8.71875 -0.375 C 8 0.0078125 7.175781 0.203125 6.25 0.203125 Z M 6.25 0.203125 "/></g></g></g><g fill="#453421" fill-opacity="1"><g transform="translate(93.425463, 17.359358)"><g><path d="M 6.34375 0.203125 C 5.164062 0.203125 4.144531 -0.0664062 3.28125 -0.609375 C 2.425781 -1.148438 1.757812 -1.898438 1.28125 -2.859375 C 0.800781 -3.828125 0.5625 -4.929688 0.5625 -6.171875 C 0.5625 -7.410156 0.800781 -8.503906 1.28125 -9.453125 C 1.757812 -10.398438 2.425781 -11.144531 3.28125 -11.6875 C 4.144531 -12.238281 5.164062 -12.515625 6.34375 -12.515625 C 7.507812 -12.515625 8.523438 -12.238281 9.390625 -11.6875 C 10.253906 -11.144531 10.921875 -10.398438 11.390625 -9.453125 C 11.867188 -8.503906 12.109375 -7.410156 12.109375 -6.171875 C 12.109375 -4.929688 11.867188 -3.828125 11.390625 -2.859375 C 10.921875 -1.898438 10.253906 -1.148438 9.390625 -0.609375 C 8.523438 -0.0664062 7.507812 0.203125 6.34375 0.203125 Z M 6.34375 -0.796875 C 7.257812 -0.796875 8.054688 -1.019531 8.734375 -1.46875 C 9.421875 -1.925781 9.957031 -2.554688 10.34375 -3.359375 C 10.726562 -4.171875 10.921875 -5.109375 10.921875 -6.171875 C 10.921875 -7.222656 10.726562 -8.148438 10.34375 -8.953125 C 9.957031 -9.765625 9.421875 -10.394531 8.734375 -10.84375 C 8.054688 -11.300781 7.257812 -11.53125 6.34375 -11.53125 C 5.425781 -11.53125 4.625 -11.300781 3.9375 -10.84375 C 3.25 -10.394531 2.710938 -9.765625 2.328125 -8.953125 C 1.941406 -8.148438 1.75 -7.222656 1.75 -6.171875 C 1.75 -5.109375 1.941406 -4.171875 2.328125 -3.359375 C 2.710938 -2.554688 3.25 -1.925781 3.9375 -1.46875 C 4.625 -1.019531 5.425781 -0.796875 6.34375 -0.796875 Z M 6.34375 -0.796875 "/></g></g></g><g fill="#453421" fill-opacity="1"><g transform="translate(119.885161, 17.359358)"><g><path d="M 4.65625 0 L 0.109375 -12.3125 L 1.359375 -12.3125 L 5.203125 -1.65625 L 5.234375 -1.65625 L 9.078125 -12.3125 L 10.328125 -12.3125 L 5.78125 0 Z M 4.65625 0 "/></g></g></g><g fill="#453421" fill-opacity="1"><g transform="translate(144.105429, 17.359358)"><g><path d="M 1.046875 0 L 1.046875 -12.3125 L 9.453125 -12.3125 L 9.453125 -11.3125 L 2.234375 -11.3125 L 2.234375 -6.984375 L 8.78125 -6.984375 L 8.78125 -5.984375 L 2.234375 -5.984375 L 2.234375 -1 L 9.609375 -1 L 9.609375 0 Z M 1.046875 0 "/></g></g></g><g fill="#453421" fill-opacity="1"><g transform="translate(168.118985, 17.359358)"><g><path d="M 1.046875 0 L 1.046875 -12.3125 L 6.109375 -12.3125 C 7.296875 -12.3125 8.238281 -12.023438 8.9375 -11.453125 C 9.644531 -10.890625 10 -10.015625 10 -8.828125 C 10 -7.960938 9.757812 -7.265625 9.28125 -6.734375 C 8.800781 -6.203125 8.148438 -5.859375 7.328125 -5.703125 L 7.328125 -5.671875 C 7.847656 -5.597656 8.265625 -5.414062 8.578125 -5.125 C 8.898438 -4.84375 9.144531 -4.5 9.3125 -4.09375 C 9.476562 -3.6875 9.597656 -3.257812 9.671875 -2.8125 C 9.742188 -2.375 9.796875 -1.957031 9.828125 -1.5625 C 9.867188 -1.164062 9.910156 -0.832031 9.953125 -0.5625 C 10.003906 -0.300781 10.085938 -0.15625 10.203125 -0.125 L 10.203125 0 L 8.953125 0 C 8.847656 -0.09375 8.773438 -0.28125 8.734375 -0.5625 C 8.691406 -0.84375 8.65625 -1.175781 8.625 -1.5625 C 8.601562 -1.957031 8.550781 -2.359375 8.46875 -2.765625 C 8.382812 -3.179688 8.253906 -3.570312 8.078125 -3.9375 C 7.898438 -4.300781 7.644531 -4.59375 7.3125 -4.8125 C 6.976562 -5.03125 6.535156 -5.140625 5.984375 -5.140625 L 2.234375 -5.140625 L 2.234375 0 Z M 2.234375 -6.125 L 5.71875 -6.125 C 6.632812 -6.125 7.378906 -6.335938 7.953125 -6.765625 C 8.523438 -7.203125 8.8125 -7.859375 8.8125 -8.734375 C 8.8125 -9.648438 8.546875 -10.304688 8.015625 -10.703125 C 7.492188 -11.109375 6.726562 -11.3125 5.71875 -11.3125 L 2.234375 -11.3125 Z M 2.234375 -6.125 "/></g></g></g><g fill="#453421" fill-opacity="1"><g transform="translate(192.614874, 17.359358)"><g/></g></g><g fill="#453421" fill-opacity="1"><g transform="translate(210.099634, 17.359358)"><g><path d="M 4.53125 0 L 4.53125 -11.3125 L 0.328125 -11.3125 L 0.328125 -12.3125 L 9.90625 -12.3125 L 9.90625 -11.3125 L 5.71875 -11.3125 L 5.71875 0 Z M 4.53125 0 "/></g></g></g><g fill="#453421" fill-opacity="1"><g transform="translate(234.113191, 17.359358)"><g><path d="M 1.046875 0 L 1.046875 -12.3125 L 2.234375 -12.3125 L 2.234375 -6.953125 L 9.1875 -6.953125 L 9.1875 -12.3125 L 10.390625 -12.3125 L 10.390625 0 L 9.1875 0 L 9.1875 -5.96875 L 2.234375 -5.96875 L 2.234375 0 Z M 1.046875 0 "/></g></g></g><g fill="#453421" fill-opacity="1"><g transform="translate(259.332601, 17.359358)"><g><path d="M 1.046875 0 L 1.046875 -12.3125 L 9.453125 -12.3125 L 9.453125 -11.3125 L 2.234375 -11.3125 L 2.234375 -6.984375 L 8.78125 -6.984375 L 8.78125 -5.984375 L 2.234375 -5.984375 L 2.234375 -1 L 9.609375 -1 L 9.609375 0 Z M 1.046875 0 "/></g></g></g><g fill="#453421" fill-opacity="1"><g transform="translate(283.346158, 17.359358)"><g/></g></g><g fill="#453421" fill-opacity="1"><g transform="translate(300.830918, 17.359358)"><g><path d="M 1.046875 0 L 1.046875 -12.3125 L 5.8125 -12.3125 C 6.613281 -12.3125 7.304688 -12.191406 7.890625 -11.953125 C 8.484375 -11.710938 8.945312 -11.328125 9.28125 -10.796875 C 9.613281 -10.265625 9.78125 -9.570312 9.78125 -8.71875 C 9.78125 -7.851562 9.613281 -7.15625 9.28125 -6.625 C 8.945312 -6.101562 8.484375 -5.71875 7.890625 -5.46875 C 7.304688 -5.226562 6.613281 -5.109375 5.8125 -5.109375 L 2.234375 -5.109375 L 2.234375 0 Z M 2.234375 -6.09375 L 5.78125 -6.09375 C 6.644531 -6.09375 7.328125 -6.296875 7.828125 -6.703125 C 8.335938 -7.117188 8.59375 -7.789062 8.59375 -8.71875 C 8.59375 -9.632812 8.335938 -10.296875 7.828125 -10.703125 C 7.328125 -11.109375 6.644531 -11.3125 5.78125 -11.3125 L 2.234375 -11.3125 Z M 2.234375 -6.09375 "/></g></g></g><g fill="#453421" fill-opacity="1"><g transform="translate(324.758347, 17.359358)"><g><path d="M 1.046875 0 L 1.046875 -12.3125 L 9.453125 -12.3125 L 9.453125 -11.3125 L 2.234375 -11.3125 L 2.234375 -6.984375 L 8.78125 -6.984375 L 8.78125 -5.984375 L 2.234375 -5.984375 L 2.234375 -1 L 9.609375 -1 L 9.609375 0 Z M 1.046875 0 "/></g></g></g><g fill="#453421" fill-opacity="1"><g transform="translate(348.771903, 17.359358)"><g><path d="M 0.109375 0 L 4.75 -12.3125 L 6.03125 -12.3125 L 10.6875 0 L 9.5 0 L 8.09375 -3.78125 L 2.703125 -3.78125 L 1.296875 0 Z M 3.015625 -4.734375 L 7.78125 -4.734375 L 5.40625 -11.125 L 5.375 -11.125 Z M 3.015625 -4.734375 "/></g></g></g><g fill="#453421" fill-opacity="1"><g transform="translate(373.353921, 17.359358)"><g><path d="M 6.25 0.203125 C 5.082031 0.203125 4.070312 -0.0625 3.21875 -0.59375 C 2.375 -1.125 1.71875 -1.867188 1.25 -2.828125 C 0.789062 -3.785156 0.5625 -4.890625 0.5625 -6.140625 C 0.5625 -7.378906 0.789062 -8.476562 1.25 -9.4375 C 1.71875 -10.394531 2.378906 -11.144531 3.234375 -11.6875 C 4.085938 -12.238281 5.101562 -12.515625 6.28125 -12.515625 C 7.1875 -12.515625 7.976562 -12.335938 8.65625 -11.984375 C 9.332031 -11.640625 9.882812 -11.160156 10.3125 -10.546875 C 10.738281 -9.941406 11.007812 -9.238281 11.125 -8.4375 L 9.9375 -8.4375 C 9.84375 -9.019531 9.632812 -9.546875 9.3125 -10.015625 C 8.988281 -10.492188 8.566406 -10.863281 8.046875 -11.125 C 7.535156 -11.394531 6.9375 -11.53125 6.25 -11.53125 C 5.269531 -11.53125 4.441406 -11.296875 3.765625 -10.828125 C 3.097656 -10.359375 2.59375 -9.71875 2.25 -8.90625 C 1.914062 -8.101562 1.75 -7.179688 1.75 -6.140625 C 1.75 -5.097656 1.921875 -4.175781 2.265625 -3.375 C 2.617188 -2.570312 3.125 -1.941406 3.78125 -1.484375 C 4.445312 -1.023438 5.257812 -0.796875 6.21875 -0.796875 C 6.976562 -0.796875 7.628906 -0.957031 8.171875 -1.28125 C 8.710938 -1.613281 9.144531 -2.046875 9.46875 -2.578125 C 9.789062 -3.117188 9.992188 -3.707031 10.078125 -4.34375 L 11.265625 -4.34375 C 11.160156 -3.445312 10.890625 -2.65625 10.453125 -1.96875 C 10.015625 -1.289062 9.4375 -0.757812 8.71875 -0.375 C 8 0.0078125 7.175781 0.203125 6.25 0.203125 Z M 6.25 0.203125 "/></g></g></g><g fill="#453421" fill-opacity="1"><g transform="translate(398.86617, 17.359358)"><g><path d="M 1.046875 0 L 1.046875 -12.3125 L 9.453125 -12.3125 L 9.453125 -11.3125 L 2.234375 -11.3125 L 2.234375 -6.984375 L 8.78125 -6.984375 L 8.78125 -5.984375 L 2.234375 -5.984375 L 2.234375 -1 L 9.609375 -1 L 9.609375 0 Z M 1.046875 0 "/></g></g></g></g></g></svg>