<svg xmlns="http://www.w3.org/2000/svg" xmlns:xlink="http://www.w3.org/1999/xlink" width="2000" zoomAndPan="magnify" viewBox="0 0 1500 1499.999933" height="2000" preserveAspectRatio="xMidYMid meet" version="1.0"><path fill="#000000" d="M 380.96875 1289.949219 C 379.875 1286.125 379.933594 1282.210938 380.933594 1278.636719 C 381.925781 1275.035156 383.886719 1271.6875 386.800781 1268.964844 C 389.238281 1266.667969 392.160156 1265.027344 395.375 1264.105469 C 626.953125 1198.289062 867.046875 1189.628906 1108.664062 1263.316406 C 1117.890625 1266.128906 1123.761719 1274.765625 1123.476562 1283.96875 C 1123.542969 1289.183594 1121.679688 1294.425781 1117.84375 1298.519531 C 1104.945312 1312.285156 1091.558594 1325.152344 1076.5625 1335.589844 C 1061.304688 1346.207031 1044.847656 1354.574219 1027.597656 1361.5 C 1004.414062 1370.8125 980.230469 1378.730469 954.046875 1380.800781 C 950.730469 1381.070312 947.597656 1381.070312 944.246094 1380.9375 C 936.363281 1380.578125 929.375 1379.609375 921.371094 1378.460938 C 920.101562 1378.640625 918.921875 1377.742188 918.742188 1376.484375 C 918.5625 1375.222656 919.449219 1374.03125 920.722656 1373.851562 C 930.960938 1369.53125 939.386719 1364.382812 949.269531 1360.175781 C 971.371094 1350.796875 992.753906 1342.675781 1012.304688 1330.867188 C 1026.238281 1322.429688 1038.863281 1312.511719 1051.511719 1302.253906 C 1055.082031 1299.375 1058.648438 1296.449219 1062.183594 1293.457031 C 852.660156 1236.484375 644.585938 1242.847656 442.851562 1294.605469 C 445.933594 1297.191406 449.035156 1299.734375 452.140625 1302.253906 C 464.792969 1312.511719 477.414062 1322.429688 491.347656 1330.867188 C 510.902344 1342.675781 532.28125 1350.796875 554.382812 1360.175781 C 564.269531 1364.382812 572.695312 1369.53125 582.933594 1373.851562 C 584.203125 1374.03125 585.089844 1375.222656 584.910156 1376.484375 C 584.730469 1377.742188 583.550781 1378.640625 582.285156 1378.460938 C 574.28125 1379.609375 567.292969 1380.578125 559.410156 1380.9375 C 556.058594 1381.070312 552.921875 1381.070312 549.609375 1380.800781 C 523.425781 1378.730469 499.238281 1370.8125 476.054688 1361.5 C 458.804688 1354.574219 442.347656 1346.207031 427.089844 1335.589844 C 412.101562 1325.152344 398.714844 1312.285156 385.820312 1298.542969 C 385.816406 1298.542969 385.8125 1298.519531 385.808594 1298.519531 C 383.527344 1296.089844 381.875 1293.167969 380.96875 1289.949219 Z M 370.886719 1036.742188 C 379.6875 1054.511719 387.753906 1072.664062 394.960938 1091.242188 C 409.761719 1129.390625 420.882812 1169.117188 428.863281 1210.4375 C 421.972656 1212.234375 415.089844 1214.101562 408.214844 1216.015625 C 393.632812 1166.257812 373.292969 1119.921875 350.320312 1075.203125 C 333.851562 1043.152344 316.117188 1011.929688 296.453125 981.765625 C 271.902344 944.113281 244.824219 907.941406 215.964844 872.898438 C 187.25 838.011719 156.996094 804.046875 125.292969 771.226562 C 103.085938 747.746094 77.679688 724.328125 55.644531 698.753906 C 40.191406 680.804688 26.34375 661.863281 16.078125 641.304688 C 11.570312 632.261719 7.957031 622.769531 5.390625 612.984375 C 2.84375 603.289062 1.207031 593.347656 0.632812 583.339844 L 0.675781 563.523438 C 0.773438 562.21875 1.152344 556.191406 1.71875 553.242188 C 1.734375 552.660156 1.761719 552.074219 1.796875 551.511719 C 2.746094 537.023438 14.953125 521.371094 27.542969 516.691406 C 45.8125 510.460938 61.570312 517.007812 70.144531 529.648438 C 77.75 540.847656 80.273438 556.796875 72.570312 570.675781 C 66.902344 580.054688 58.546875 587.613281 48.449219 590.089844 C 44.171875 591.144531 39.726562 591.660156 35.328125 591.390625 C 34.476562 591.347656 33.625 591.257812 32.777344 591.144531 L 35.207031 594.363281 L 37.503906 597.148438 C 43.09375 603.851562 49.167969 610.308594 55.722656 616.179688 C 62.066406 621.871094 68.917969 626.953125 76.261719 631.183594 C 94.027344 641.394531 113.332031 647.535156 133.210938 651.945312 C 164.488281 658.851562 197.214844 661.167969 228.363281 665.554688 C 245.6875 668.050781 262.667969 671.042969 279.320312 675.269531 C 296.433594 679.632812 313.160156 685.347656 329.582031 692.925781 C 367.015625 710.539062 399.453125 732.382812 427.347656 757.796875 C 471.359375 797.882812 504.507812 846.492188 528.742188 900.203125 C 544.410156 934.914062 556.613281 971.710938 565.265625 1009.726562 C 577.15625 1061.957031 582.542969 1116.1875 585.226562 1169.746094 C 585.386719 1172.9375 585.679688 1179.328125 585.679688 1179.328125 L 565.339844 1181.058594 C 565.339844 1181.058594 564.566406 1175.03125 564.164062 1172.015625 C 557.21875 1120.257812 546.695312 1068.34375 532.21875 1018.207031 C 526.105469 997.039062 519.375 976.1875 511.65625 955.875 C 500.003906 925.195312 486.1875 895.730469 469.394531 868.195312 C 433.332031 809.085938 383.734375 758.835938 314.15625 725.050781 C 299.894531 717.941406 285.289062 712.5625 270.355469 708.222656 C 254.957031 703.746094 239.238281 700.304688 223.171875 697.382812 C 191.523438 691.511719 158.164062 687.6875 126.527344 679.117188 C 104.289062 673.109375 82.894531 664.855469 63.402344 652.304688 C 55.777344 647.378906 48.652344 641.6875 42.046875 635.390625 C 51.839844 651.089844 64.042969 665.464844 77.179688 679.230469 C 100.210938 703.339844 126.273438 725.316406 149.265625 747.472656 C 176.8125 774.558594 203.671875 802.222656 229.003906 830.96875 C 233.90625 832.140625 239.101562 833.671875 239.957031 833.871094 C 251.425781 836.503906 262.691406 839.628906 273.902344 843.140625 C 285.066406 846.671875 296.023438 850.652344 306.957031 854.835938 C 324.828125 861.921875 342.03125 869.972656 358.324219 879.511719 C 382.988281 893.953125 405.679688 911.273438 426.742188 930.390625 C 437.210938 939.90625 447.28125 949.894531 456.730469 960.464844 C 462.992188 967.460938 469.082031 974.636719 474.6875 982.214844 C 488.628906 1001.019531 500.398438 1021.0625 511.882812 1041.621094 C 515.113281 1046.234375 513.992188 1052.597656 509.375 1055.835938 C 504.761719 1059.054688 498.394531 1057.929688 495.164062 1053.320312 C 482.667969 1038.96875 469.546875 1025.628906 456.210938 1012.15625 C 450.5625 1006.464844 444.855469 1000.910156 439.261719 995.195312 C 420.773438 976.210938 401.941406 957.765625 381.503906 941.144531 C 367.96875 930.121094 353.9375 919.730469 339.324219 910.035156 C 324.839844 900.40625 310.023438 891.1875 294.210938 883.222656 C 284.308594 878.09375 274.335938 873.210938 264.175781 868.601562 C 262.398438 867.792969 260.617188 867.003906 258.832031 866.195312 C 293.621094 908.910156 325.28125 953.71875 352.070312 1001.222656 C 356.1875 1002.394531 365.738281 1006.171875 366.730469 1006.601562 C 375.589844 1010.289062 384.304688 1014.269531 392.933594 1018.65625 C 401.652344 1023.042969 410.054688 1027.902344 418.304688 1032.984375 C 431.898438 1041.710938 443.96875 1050.800781 454.554688 1060.71875 C 471.992188 1077.050781 485.601562 1095.113281 497.277344 1114.34375 C 503.070312 1123.878906 508.394531 1133.734375 513.125 1144.035156 C 516.167969 1150.671875 519.070312 1157.417969 521.554688 1164.457031 C 524.269531 1172.152344 526.640625 1180 528.925781 1188.03125 C 519.078125 1189.855469 509.246094 1191.789062 499.425781 1193.835938 C 497.867188 1191.25 496.320312 1188.664062 494.789062 1186.074219 C 491.523438 1180.542969 488.28125 1175.1875 485.28125 1169.675781 C 475.332031 1151.414062 465.867188 1133.734375 454.101562 1117.109375 C 446.597656 1106.515625 438.398438 1096.257812 429.042969 1086.203125 C 420.34375 1076.867188 410.996094 1067.46875 399.910156 1058.535156 C 393.070312 1052.847656 386.007812 1047.425781 378.699219 1042.207031 C 376.101562 1040.363281 373.5 1038.539062 370.886719 1036.742188 Z M 1458.136719 635.996094 C 1451.476562 642.363281 1444.285156 648.121094 1436.582031 653.070312 C 1417.089844 665.597656 1395.695312 673.808594 1373.46875 679.8125 C 1341.832031 688.363281 1308.472656 692.140625 1276.828125 697.988281 C 1260.75 700.933594 1245.027344 704.375 1229.617188 708.851562 C 1214.667969 713.195312 1200.054688 718.59375 1185.785156 725.703125 C 1110.457031 762.34375 1058.546875 818.261719 1022.007812 883.898438 C 1005.074219 914.332031 991.46875 946.855469 980.273438 980.617188 C 972.871094 1002.957031 966.585938 1025.832031 960.929688 1048.976562 C 950.5 1091.648438 942.621094 1135.238281 936.960938 1178.539062 C 928.890625 1177.371094 920.828125 1176.265625 912.765625 1175.257812 C 914.851562 1130.742188 919.046875 1085.730469 927.277344 1041.710938 C 931.867188 1017.148438 937.921875 992.96875 945.210938 969.394531 C 956.453125 933.023438 970.945312 898.113281 989.101562 865.566406 C 1029.261719 793.609375 1087.527344 733.304688 1170.550781 693.984375 C 1186.964844 686.40625 1203.679688 680.714844 1220.78125 676.371094 C 1237.425781 672.144531 1254.398438 669.152344 1271.714844 666.65625 C 1302.863281 662.246094 1335.59375 659.90625 1366.871094 652.957031 C 1386.757812 648.546875 1406.0625 642.363281 1423.828125 632.128906 C 1431.171875 627.898438 1438.015625 622.792969 1444.359375 617.082031 C 1450.910156 611.1875 1456.976562 604.753906 1462.558594 598.027344 L 1467.183594 592.023438 C 1461.992188 592.695312 1456.671875 592.203125 1451.585938 590.941406 C 1441.492188 588.492188 1433.132812 580.910156 1427.46875 571.53125 C 1419.765625 557.652344 1422.289062 541.703125 1429.890625 530.503906 C 1437.476562 519.324219 1450.675781 512.914062 1466.265625 515.90625 C 1468.304688 516.285156 1470.382812 516.824219 1472.496094 517.546875 C 1472.9375 517.726562 1480.582031 521.144531 1485.925781 526.429688 C 1490.414062 530.882812 1493.617188 536.554688 1493.816406 537.699219 C 1494.917969 539.792969 1495.847656 541.949219 1496.570312 544.109375 C 1497.480469 546.855469 1498.058594 549.621094 1498.238281 552.367188 C 1498.398438 554.773438 1498.355469 557.15625 1498.089844 559.472656 C 1498.671875 561.410156 1499.28125 563.320312 1499.363281 564.378906 L 1499.40625 584.195312 C 1498.832031 594.203125 1497.191406 604.144531 1494.648438 613.839844 C 1492.082031 623.625 1488.464844 633.117188 1483.957031 642.160156 C 1473.695312 662.71875 1459.847656 681.660156 1444.394531 699.609375 C 1422.359375 725.207031 1396.949219 748.597656 1374.746094 772.082031 C 1343.042969 804.902344 1312.789062 838.863281 1284.074219 873.753906 C 1255.210938 908.796875 1228.136719 944.96875 1203.585938 982.621094 C 1183.917969 1012.785156 1166.1875 1044.027344 1149.71875 1076.082031 C 1127.4375 1119.425781 1107.636719 1164.300781 1093.160156 1212.371094 C 1086.144531 1210.347656 1079.125 1208.390625 1072.113281 1206.523438 C 1080.019531 1166.910156 1090.847656 1128.785156 1105.078125 1092.097656 C 1112.285156 1073.519531 1120.351562 1055.363281 1129.152344 1037.59375 C 1126.535156 1039.394531 1123.9375 1041.214844 1121.339844 1043.0625 C 1114.03125 1048.28125 1106.96875 1053.699219 1100.125 1059.414062 C 1089.042969 1068.320312 1079.695312 1077.722656 1070.992188 1087.082031 C 1061.640625 1097.113281 1053.441406 1107.394531 1045.9375 1117.988281 C 1034.167969 1134.585938 1024.707031 1152.265625 1014.757812 1170.53125 C 1011.757812 1176.042969 1008.515625 1181.417969 1005.25 1186.929688 C 1004.597656 1188.03125 1003.945312 1189.132812 1003.292969 1190.234375 C 993 1188.121094 982.714844 1186.140625 972.429688 1184.296875 C 974.3125 1177.863281 976.285156 1171.542969 978.484375 1165.3125 C 980.96875 1158.273438 983.871094 1151.523438 986.914062 1144.890625 C 991.640625 1134.585938 996.96875 1124.734375 1002.761719 1115.199219 C 1014.4375 1095.988281 1028.042969 1077.902344 1045.484375 1061.574219 C 1056.070312 1051.652344 1068.140625 1042.566406 1081.734375 1033.863281 C 1089.984375 1028.757812 1098.386719 1023.917969 1107.105469 1019.511719 C 1115.734375 1015.148438 1124.449219 1011.144531 1133.308594 1007.453125 C 1134.300781 1007.050781 1143.851562 1003.246094 1147.96875 1002.078125 C 1174.757812 954.574219 1206.414062 909.765625 1241.207031 867.070312 C 1239.421875 867.859375 1237.640625 868.648438 1235.863281 869.457031 C 1225.703125 874.066406 1215.730469 878.949219 1205.824219 884.101562 C 1190.011719 892.039062 1175.195312 901.261719 1160.714844 910.890625 C 1146.101562 920.585938 1132.066406 930.976562 1118.53125 941.996094 C 1098.097656 958.621094 1079.265625 977.089844 1060.773438 996.050781 C 1055.183594 1001.785156 1049.472656 1007.320312 1043.824219 1013.03125 C 1030.492188 1026.484375 1017.371094 1039.824219 1004.875 1054.171875 C 1001.644531 1058.785156 995.277344 1059.910156 990.660156 1056.691406 C 986.046875 1053.453125 984.925781 1047.089844 988.152344 1042.476562 C 999.640625 1021.917969 1011.410156 1001.898438 1025.347656 983.070312 C 1030.957031 975.492188 1037.042969 968.335938 1043.304688 961.320312 C 1052.753906 950.75 1062.828125 940.761719 1073.292969 931.246094 C 1094.355469 912.128906 1117.050781 894.808594 1141.710938 880.367188 C 1158.007812 870.828125 1175.210938 862.777344 1193.078125 855.691406 C 1204.015625 851.507812 1214.96875 847.523438 1226.132812 844.015625 C 1237.347656 840.484375 1248.609375 837.359375 1260.082031 834.726562 C 1260.933594 834.523438 1266.132812 832.996094 1271.03125 831.824219 C 1296.363281 803.078125 1323.222656 775.433594 1350.773438 748.328125 C 1373.765625 726.195312 1399.828125 704.199219 1422.855469 680.082031 C 1436.058594 666.25 1448.320312 651.785156 1458.136719 635.996094 Z M 748.214844 1166.035156 C 742.429688 1166.101562 736.644531 1166.214844 730.863281 1166.371094 C 725.875 1143.066406 718.113281 1121.046875 709.089844 1099.519531 C 693.691406 1062.789062 674.460938 1027.699219 657.429688 991.078125 C 648.003906 970.273438 638.421875 949.128906 628.859375 927.804688 C 607.214844 879.511719 584.660156 830.679688 556.773438 785.78125 C 530.605469 743.671875 500.054688 704.851562 461.4375 673.289062 C 439.257812 655.027344 415.183594 638.515625 390.1875 623.488281 C 364.964844 608.351562 338.808594 594.675781 312.542969 582.527344 C 291.792969 572.789062 267.148438 564.578125 245.480469 552.679688 C 229.019531 543.636719 214.175781 532.640625 203.164062 518.085938 C 192.65625 504.164062 183.910156 484.570312 182.242188 465.316406 C 181.003906 450.921875 183.421875 436.75 191.058594 424.804688 C 207.285156 399.589844 233.171875 393.71875 257.179688 400.941406 C 279.015625 407.53125 299.015625 425.144531 306.363281 447.230469 C 311.484375 462.617188 309.996094 477.328125 303.839844 490.304688 C 298.113281 502.363281 288.46875 512.933594 276.734375 520.71875 C 273.664062 522.742188 270.441406 524.652344 267.097656 526.320312 C 286.910156 535.675781 308.507812 542.492188 327.015625 550.589844 C 354.652344 562.847656 382.242188 576.570312 408.792969 592.066406 C 435.589844 607.675781 461.296875 625.109375 485.078125 644.320312 C 526.992188 678.464844 560.578125 720.234375 588.746094 766.007812 C 617.371094 812.546875 640.765625 863.046875 661.867188 913.523438 C 670.898438 935.136719 679.296875 956.800781 687.882812 978.011719 C 702.769531 1015.910156 720.039062 1052.375 733.164062 1090.320312 C 740.328125 1111.035156 746.300781 1132.113281 750.09375 1154.023438 C 753.894531 1132.40625 759.800781 1111.621094 766.871094 1091.175781 C 780 1053.25 797.269531 1016.765625 812.15625 978.886719 C 820.738281 957.652344 829.140625 935.992188 838.171875 914.375 C 859.269531 863.902344 882.667969 813.402344 911.292969 766.863281 C 939.460938 721.089844 973.046875 679.339844 1014.960938 645.175781 C 1038.738281 625.964844 1064.449219 608.53125 1091.246094 592.921875 C 1117.796875 577.445312 1145.386719 563.703125 1173.023438 551.445312 C 1191.53125 543.347656 1213.128906 536.53125 1232.941406 527.171875 C 1229.59375 525.507812 1226.375 523.597656 1223.304688 521.574219 C 1211.570312 513.789062 1201.921875 503.21875 1196.199219 491.160156 C 1190.042969 478.203125 1188.554688 463.472656 1193.675781 448.085938 C 1201.019531 426.019531 1221.023438 408.40625 1242.855469 401.816406 C 1266.867188 394.574219 1292.753906 400.445312 1308.976562 425.660156 C 1316.617188 437.605469 1319.035156 451.773438 1317.792969 466.171875 C 1316.128906 485.449219 1307.382812 505.039062 1296.875 518.941406 C 1285.863281 533.492188 1271.015625 544.492188 1254.558594 553.535156 C 1232.890625 565.433594 1208.246094 573.667969 1187.492188 583.386719 C 1161.226562 595.554688 1135.074219 609.207031 1109.851562 624.34375 C 1084.855469 639.371094 1060.777344 655.882812 1038.601562 674.144531 C 999.980469 705.703125 969.429688 744.527344 943.265625 786.636719 C 915.375 831.53125 892.824219 880.367188 871.175781 928.660156 C 861.617188 950.007812 852.03125 971.128906 842.609375 991.933594 C 825.578125 1028.554688 806.347656 1063.644531 790.949219 1100.398438 C 782.089844 1121.519531 774.449219 1143.113281 769.449219 1165.945312 C 763.609375 1165.921875 757.769531 1165.945312 751.933594 1165.988281 C 750.695312 1166.011719 749.453125 1166.011719 748.214844 1166.035156 Z M 246.347656 511.429688 C 249.359375 510.707031 252.269531 509.5625 255.082031 508.1875 C 258.308594 506.613281 261.363281 504.679688 264.242188 502.609375 C 272.253906 496.851562 278.878906 489.292969 282.566406 480.699219 C 285.875 472.988281 286.429688 464.347656 283.09375 455.464844 C 277.777344 441.335938 264.21875 430.585938 249.898438 426.851562 C 237.265625 423.566406 223.726562 426.625 215.773438 440.078125 C 210.765625 448.46875 211.050781 458.75 213.347656 468.601562 C 215.964844 479.824219 221.695312 490.578125 228.136719 498.5625 C 232.433594 503.871094 237.480469 508.4375 243.015625 512.460938 C 244.941406 512.914062 246.441406 512.914062 246.386719 511.539062 C 246.386719 511.496094 246.371094 511.449219 246.347656 511.429688 Z M 246.347656 511.429688 C 246.105469 511.496094 245.867188 511.539062 245.628906 511.609375 C 245.820312 511.5625 246.214844 511.335938 246.347656 511.429688 Z M 1253.691406 512.304688 C 1253.667969 512.304688 1253.652344 512.351562 1253.648438 512.394531 C 1253.59375 513.765625 1255.097656 513.765625 1257.023438 513.316406 C 1262.558594 509.289062 1267.605469 504.746094 1271.902344 499.417969 C 1278.34375 491.453125 1284.074219 480.679688 1286.691406 469.453125 C 1288.988281 459.601562 1289.273438 449.34375 1284.265625 440.933594 C 1276.308594 427.484375 1262.773438 424.421875 1250.140625 427.707031 C 1235.820312 431.464844 1222.261719 442.191406 1216.945312 456.339844 C 1213.605469 465.203125 1214.164062 473.839844 1217.472656 481.558594 C 1221.15625 490.148438 1227.785156 497.707031 1235.796875 503.464844 C 1238.671875 505.535156 1241.726562 507.46875 1244.957031 509.042969 C 1247.765625 510.414062 1250.679688 511.5625 1253.691406 512.304688 Z M 1253.691406 512.304688 C 1253.824219 512.191406 1254.214844 512.417969 1254.40625 512.460938 C 1254.167969 512.417969 1253.929688 512.351562 1253.691406 512.304688 Z M 738.351562 952.253906 C 738.207031 951.964844 738.0625 951.671875 737.921875 951.445312 L 726.855469 932.328125 L 694.128906 873.957031 C 675.152344 839.089844 657.207031 803.257812 643.167969 766.007812 C 633.636719 740.726562 626.050781 714.769531 620.816406 688.183594 C 610.867188 634.199219 614.859375 583.316406 626.679688 533.988281 C 637.121094 490.441406 653.289062 447.972656 670.992188 405.730469 C 682.332031 378.695312 694.601562 351.902344 705.46875 324.484375 C 713.085938 306.332031 719.433594 288.136719 725.265625 269.710938 C 730.0625 254.550781 734.535156 239.367188 738.984375 223.984375 C 740.046875 220.292969 741.210938 216.605469 742.183594 212.871094 C 743.023438 209.632812 745.1875 207.089844 748.03125 205.851562 C 752.621094 205.898438 756.765625 209.070312 757.855469 213.726562 C 758.859375 217.234375 759.859375 220.699219 760.863281 224.183594 C 765.375 239.796875 769.90625 255.203125 774.773438 270.566406 C 780.605469 288.988281 786.953125 307.1875 794.570312 325.339844 C 805.433594 352.757812 817.707031 379.546875 829.042969 406.585938 C 846.75 448.828125 862.917969 491.296875 873.355469 534.84375 C 885.175781 584.171875 889.171875 635.050781 879.21875 689.035156 C 873.988281 715.625 866.402344 741.582031 856.871094 766.863281 C 842.832031 804.113281 824.886719 839.96875 805.910156 874.808594 L 773.183594 933.179688 L 762.117188 952.300781 C 762.089844 952.34375 762.066406 952.390625 762.039062 952.433594 C 760.808594 954.617188 759.503906 959.453125 758.253906 961.363281 C 756.414062 964.132812 754.238281 965.640625 752.386719 966.292969 C 750.769531 966.3125 749.203125 965.929688 747.792969 965.480469 C 745.910156 964.875 743.667969 963.34375 741.78125 960.488281 C 740.652344 958.777344 739.476562 954.660156 738.351562 952.253906 Z M 749.925781 281.160156 C 749.410156 283.546875 748.878906 285.929688 748.335938 288.316406 C 744.746094 304.105469 740.523438 319.761719 735.554688 335.507812 C 726.054688 363.78125 715.75 391.738281 705.105469 419.429688 C 689.335938 460.480469 673.492188 501.058594 663.308594 542.851562 C 652.464844 587.367188 647.539062 633.117188 655.820312 681.996094 C 660.6875 713.238281 669.300781 743.582031 679.992188 773.296875 C 690.875 803.527344 703.796875 833.085938 717.601562 861.964844 L 718.480469 863.765625 C 716.878906 855.511719 715.714844 847.253906 715.152344 838.933594 C 714.335938 826.808594 714.769531 814.707031 715.867188 802.652344 C 717.378906 786.050781 720.257812 769.496094 724.304688 753.144531 C 725.15625 749.703125 726.0625 746.257812 727.164062 742.863281 C 728.269531 739.464844 729.585938 736.207031 730.855469 732.832031 C 734.410156 724.800781 737.328125 716.726562 740.980469 708.582031 C 742.363281 705.523438 743.761719 702.578125 745.269531 699.699219 C 746.550781 697.246094 747.90625 694.839844 749.394531 692.433594 C 749.464844 692.253906 749.546875 692.074219 749.640625 691.914062 C 750.082031 692.253906 750.433594 692.726562 750.644531 693.289062 C 752.074219 695.605469 753.382812 697.921875 754.621094 700.28125 C 756.183594 703.25 757.628906 706.289062 759.054688 709.4375 C 762.707031 717.582031 765.625 725.65625 769.183594 733.707031 C 770.453125 737.058594 771.765625 740.320312 772.875 743.738281 C 773.972656 747.113281 774.878906 750.554688 775.734375 754.019531 C 779.78125 770.351562 782.660156 786.90625 784.171875 803.507812 C 785.265625 815.5625 785.703125 827.664062 784.886719 839.789062 C 784.324219 848.109375 783.15625 856.367188 781.554688 864.621094 L 782.433594 862.820312 C 796.238281 833.9375 809.164062 804.382812 820.046875 774.152344 C 830.734375 744.460938 839.351562 714.09375 844.21875 682.851562 C 852.5 633.972656 847.570312 588.222656 836.726562 543.707031 C 826.546875 501.914062 810.703125 461.335938 794.929688 420.285156 C 784.289062 392.59375 773.984375 364.636719 764.484375 336.359375 C 759.515625 320.613281 755.292969 304.960938 751.699219 289.167969 C 751.09375 286.515625 750.503906 283.839844 749.925781 281.160156 Z M 749.753906 927.871094 C 749.8125 927.960938 749.863281 928.074219 749.914062 928.1875 L 750.234375 928.816406 C 750.246094 928.792969 750.253906 928.792969 750.265625 928.773438 L 753.449219 922.429688 L 753.703125 921.910156 C 753.933594 919.414062 753.96875 916.964844 754.082031 916.511719 C 755.902344 909.335938 757.128906 902.117188 758.164062 894.761719 C 759.191406 887.429688 759.839844 880.140625 760.230469 872.808594 C 761.066406 861.515625 760.652344 850.472656 760.242188 839.40625 C 759.832031 828.25 759.074219 817.203125 757.871094 806.136719 C 756.167969 790.550781 753.558594 775.027344 750.644531 759.464844 C 750.40625 758.183594 750.171875 756.921875 749.941406 755.640625 C 749.761719 756.628906 749.578125 757.621094 749.390625 758.609375 C 746.480469 774.175781 743.867188 789.695312 742.167969 805.28125 C 740.964844 816.328125 740.207031 827.394531 739.796875 838.550781 C 739.386719 849.617188 738.972656 860.664062 739.808594 871.953125 C 740.195312 879.285156 740.847656 886.574219 741.871094 893.882812 C 742.90625 901.261719 744.136719 908.484375 745.957031 915.65625 C 746.066406 916.109375 746.105469 918.558594 746.335938 921.054688 L 746.589844 921.574219 Z M 699.535156 742.277344 C 699.546875 742.097656 699.574219 741.941406 699.613281 741.761719 C 699.300781 741.109375 698.761719 740.320312 698.660156 739.9375 L 697.292969 733.867188 L 695.453125 716.34375 C 695.039062 707.097656 695.214844 698.191406 695.945312 689.195312 C 696.679688 680.152344 698.152344 671.265625 699.96875 662.15625 C 701.945312 653.765625 704.023438 645.398438 706.597656 637.167969 C 712.351562 618.722656 719.53125 600.75 724.351562 581.988281 C 726.355469 575.21875 727.847656 568.402344 729.542969 561.632812 C 730.292969 558.640625 731.097656 555.71875 731.972656 552.792969 C 734.234375 545.167969 736.65625 537.949219 739.074219 530.367188 C 741.546875 522.628906 744.082031 515.386719 746.742188 507.648438 C 746.980469 505.917969 748.574219 504.703125 750.304688 504.949219 C 751.695312 505.128906 752.75 506.1875 752.988281 507.515625 C 753.140625 507.804688 753.246094 508.144531 753.296875 508.503906 C 755.957031 516.242188 758.492188 523.484375 760.964844 531.222656 C 763.382812 538.800781 765.804688 546.023438 768.066406 553.648438 C 768.9375 556.59375 769.746094 559.519531 770.492188 562.488281 C 772.191406 569.257812 773.683594 576.074219 775.683594 582.84375 C 780.507812 601.605469 787.683594 619.578125 793.4375 638.019531 C 796.011719 646.277344 798.09375 654.621094 800.066406 663.035156 C 801.886719 672.144531 803.355469 681.007812 804.09375 690.046875 C 804.824219 699.066406 805 707.953125 804.585938 717.199219 L 802.746094 734.71875 L 801.378906 740.792969 C 801.277344 741.175781 800.734375 741.964844 800.421875 742.617188 C 800.464844 742.796875 800.492188 742.953125 800.503906 743.132812 C 800.449219 743.019531 800.390625 742.910156 800.34375 742.796875 C 800.164062 743.222656 800.121094 743.5625 800.40625 743.652344 C 800.441406 743.652344 800.46875 743.652344 800.492188 743.671875 C 800.445312 744.144531 800.292969 744.59375 800.027344 745.023438 C 799.457031 746.238281 798.523438 746.394531 798.21875 746.550781 C 796.847656 747.203125 794.207031 746.980469 793.90625 743.269531 C 793.863281 742.730469 794.207031 740.613281 794.234375 739.738281 L 794.160156 734.25 L 792.152344 717.941406 C 790.742188 709.414062 788.742188 701.339844 786.445312 693.21875 C 784.175781 685.191406 781.492188 677.382812 778.347656 669.445312 C 775.5625 661.660156 772.34375 654.082031 769.34375 646.390625 C 766.28125 638.539062 763.347656 630.621094 760.527344 622.679688 C 756.65625 611.792969 753.203125 600.773438 750.273438 589.570312 C 750.152344 589.054688 750.035156 588.558594 749.917969 588.039062 C 749.871094 588.265625 749.816406 588.492188 749.765625 588.691406 C 746.835938 599.917969 743.378906 610.9375 739.511719 621.824219 C 736.691406 629.765625 733.753906 637.660156 730.695312 645.535156 C 727.695312 653.226562 724.476562 660.785156 721.691406 668.589844 C 718.546875 676.53125 715.863281 684.335938 713.59375 692.363281 C 711.296875 700.484375 709.296875 708.5625 707.886719 717.085938 L 705.875 733.394531 L 705.800781 738.882812 C 705.828125 739.757812 706.175781 741.875 706.128906 742.414062 C 705.832031 746.125 703.191406 746.347656 701.820312 745.699219 C 701.511719 745.539062 700.578125 745.382812 700.011719 744.167969 C 699.742188 743.738281 699.59375 743.269531 699.542969 742.796875 C 699.570312 742.796875 699.597656 742.796875 699.628906 742.796875 C 699.917969 742.707031 699.875 742.367188 699.695312 741.941406 C 699.644531 742.054688 699.585938 742.167969 699.535156 742.277344 Z M 800.503906 743.132812 C 800.617188 743.402344 800.6875 743.671875 800.492188 743.671875 C 800.511719 743.492188 800.511719 743.3125 800.503906 743.132812 Z M 699.542969 742.796875 C 699.351562 742.820312 699.421875 742.546875 699.535156 742.277344 C 699.523438 742.457031 699.527344 742.636719 699.542969 742.796875 Z M 700.210938 740.5 C 700.433594 740.230469 700.710938 739.984375 701.035156 739.78125 C 701.203125 739.667969 701.378906 739.578125 701.558594 739.511719 C 701.007812 739.648438 700.539062 739.960938 700.210938 740.5 Z M 799.824219 741.378906 C 799.5 740.816406 799.03125 740.5 798.476562 740.367188 C 798.65625 740.433594 798.832031 740.523438 799.003906 740.636719 C 799.328125 740.839844 799.601562 741.085938 799.824219 741.378906 Z M 746.113281 3.683594 C 746.539062 2.015625 748.039062 0.847656 749.769531 0.824219 C 751.496094 0.804688 753.015625 1.972656 753.460938 3.636719 C 763.609375 42.347656 788.332031 68.824219 832.367188 79.304688 C 834.03125 79.710938 835.222656 81.171875 835.28125 82.882812 C 835.335938 84.589844 834.246094 86.144531 832.609375 86.660156 C 793.164062 98.964844 767.109375 124.945312 754.132812 165.074219 C 753.601562 166.691406 752.046875 167.773438 750.332031 167.703125 C 748.617188 167.613281 747.164062 166.398438 746.789062 164.734375 C 737.910156 125.078125 712.617188 98.132812 667.121094 86.074219 C 665.453125 85.625 664.296875 84.117188 664.300781 82.386719 C 664.304688 80.65625 665.46875 79.148438 667.136719 78.699219 C 709.507812 67.609375 736.441406 43.136719 746.113281 3.683594 Z M 745.027344 1332.824219 C 745.453125 1331.136719 746.953125 1329.964844 748.683594 1329.945312 C 750.410156 1329.921875 751.925781 1331.089844 752.375 1332.753906 C 762.523438 1371.464844 787.246094 1397.964844 831.28125 1408.445312 C 832.945312 1408.828125 834.136719 1410.289062 834.191406 1412.023438 C 834.25 1413.730469 833.160156 1415.261719 831.523438 1415.777344 C 792.078125 1428.082031 766.023438 1454.0625 753.046875 1494.191406 C 752.515625 1495.808594 750.960938 1496.890625 749.242188 1496.824219 C 747.53125 1496.734375 746.078125 1495.519531 745.699219 1493.855469 C 736.824219 1454.199219 711.53125 1427.25 666.035156 1415.195312 C 664.367188 1414.742188 663.207031 1413.238281 663.214844 1411.503906 C 663.214844 1409.773438 664.378906 1408.265625 666.050781 1407.816406 C 708.417969 1396.75 735.355469 1372.253906 745.027344 1332.824219 Z M 641.15625 1172.015625 C 639.324219 1156.496094 637.042969 1141 633.335938 1125.65625 C 630.992188 1113.847656 628.234375 1102.175781 625.085938 1090.546875 C 621.925781 1078.847656 618.59375 1067.332031 614.539062 1055.949219 C 614.167969 1054.894531 608.828125 1042.566406 606.972656 1037.527344 C 604.1875 1029.949219 607.53125 1024.640625 608.085938 1024.121094 C 611.90625 1019.960938 618.394531 1019.667969 622.5625 1023.492188 C 623.5625 1024.390625 624.339844 1025.472656 624.890625 1026.617188 C 625.09375 1027.046875 627.367188 1031.183594 627.550781 1031.5 C 630.867188 1036.964844 636.167969 1045.199219 636.632812 1046.03125 C 642.800781 1057.320312 648.421875 1068.792969 653.523438 1080.625 C 658.621094 1092.457031 662.964844 1104.511719 667.054688 1116.703125 C 670.683594 1128.761719 673.757812 1140.910156 676.019531 1153.191406 C 676.980469 1158.40625 677.835938 1163.628906 678.59375 1168.890625 C 666.097656 1169.746094 653.617188 1170.78125 641.15625 1172.015625 Z M 821.800781 1167.339844 C 822.46875 1162.90625 823.203125 1158.476562 824.019531 1154.042969 C 826.28125 1141.761719 829.355469 1129.636719 832.984375 1117.558594 C 837.074219 1105.367188 841.414062 1093.3125 846.515625 1081.480469 C 851.617188 1069.648438 857.234375 1058.175781 863.40625 1046.90625 C 863.847656 1046.097656 868.683594 1038.585938 872.007812 1033.140625 C 872.1875 1032.847656 872.359375 1032.558594 872.527344 1032.289062 C 872.699219 1032.015625 874.582031 1028.644531 874.679688 1028.441406 C 874.75 1028.28125 874.925781 1027.992188 874.992188 1027.832031 C 875.546875 1026.550781 876.378906 1025.359375 877.476562 1024.347656 C 881.644531 1020.523438 888.132812 1020.816406 891.953125 1024.976562 C 892.503906 1025.492188 895.851562 1030.800781 893.066406 1038.382812 C 891.210938 1043.421875 885.871094 1055.75 885.5 1056.804688 C 881.445312 1068.1875 878.113281 1079.726562 874.953125 1091.398438 C 871.804688 1103.03125 869.042969 1114.703125 866.703125 1126.511719 C 863.242188 1140.839844 861.027344 1155.257812 859.257812 1169.746094 C 846.761719 1168.734375 834.273438 1167.945312 821.800781 1167.339844 Z M 821.800781 1167.339844 " fill-opacity="1" fill-rule="evenodd"/></svg>