<svg xmlns="http://www.w3.org/2000/svg" version="1" xmlns:xlink="http://www.w3.org/1999/xlink" width="64" zoomAndPan="magnify" viewBox="0 0 48 48" height="64" preserveAspectRatio="xMidYMid meet"><defs><g></g><clipPath id="e1326cd0ef"><path d="M 3 28 L 47.507812 28 L 47.507812 36 L 3 36 Z M 3 28 " clip-rule="nonzero"></path></clipPath><clipPath id="1416a6286c"><path d="M 17 8.742188 L 26 8.742188 L 26 25 L 17 25 Z M 17 8.742188 " clip-rule="nonzero"></path></clipPath><clipPath id="1dfd3be240"><path d="M 1.898438 24 L 18 24 L 18 32 L 1.898438 32 Z M 1.898438 24 " clip-rule="nonzero"></path></clipPath><clipPath id="d8221d8f77"><path d="M 0.605469 0.0820312 L 2 0.0820312 L 2 2 L 0.605469 2 Z M 0.605469 0.0820312 " clip-rule="nonzero"></path></clipPath><clipPath id="be3ee3ebb8"><path d="M 3 0.0820312 L 4 0.0820312 L 4 2 L 3 2 Z M 3 0.0820312 " clip-rule="nonzero"></path></clipPath><clipPath id="fd38ace234"><path d="M 4 0.0820312 L 6 0.0820312 L 6 2 L 4 2 Z M 4 0.0820312 " clip-rule="nonzero"></path></clipPath><clipPath id="1fecdd323f"><path d="M 6 0.0820312 L 8 0.0820312 L 8 2 L 6 2 Z M 6 0.0820312 " clip-rule="nonzero"></path></clipPath><clipPath id="be3d80654d"><path d="M 9 0.0820312 L 11 0.0820312 L 11 2 L 9 2 Z M 9 0.0820312 " clip-rule="nonzero"></path></clipPath><clipPath id="2bbada1ba6"><path d="M 11 0.0820312 L 13 0.0820312 L 13 2 L 11 2 Z M 11 0.0820312 " clip-rule="nonzero"></path></clipPath><clipPath id="0a032370d6"><path d="M 13 0.0820312 L 15 0.0820312 L 15 2 L 13 2 Z M 13 0.0820312 " clip-rule="nonzero"></path></clipPath><clipPath id="fb9907fc87"><path d="M 15 0.0820312 L 17 0.0820312 L 17 2 L 15 2 Z M 15 0.0820312 " clip-rule="nonzero"></path></clipPath><clipPath id="feff8db345"><path d="M 19 0.0820312 L 21 0.0820312 L 21 2 L 19 2 Z M 19 0.0820312 " clip-rule="nonzero"></path></clipPath><clipPath id="e4459cdca0"><path d="M 21 0.0820312 L 23 0.0820312 L 23 2 L 21 2 Z M 21 0.0820312 " clip-rule="nonzero"></path></clipPath><clipPath id="a10d4f46d8"><path d="M 24 0.0820312 L 25 0.0820312 L 25 2 L 24 2 Z M 24 0.0820312 " clip-rule="nonzero"></path></clipPath><clipPath id="8364bcb077"><path d="M 27 0.0820312 L 29 0.0820312 L 29 2 L 27 2 Z M 27 0.0820312 " clip-rule="nonzero"></path></clipPath><clipPath id="40bb912865"><path d="M 30 0.0820312 L 31 0.0820312 L 31 2 L 30 2 Z M 30 0.0820312 " clip-rule="nonzero"></path></clipPath><clipPath id="43cf3dd140"><path d="M 32 0.0820312 L 34 0.0820312 L 34 2 L 32 2 Z M 32 0.0820312 " clip-rule="nonzero"></path></clipPath><clipPath id="355739990a"><path d="M 34 0.0820312 L 36 0.0820312 L 36 2 L 34 2 Z M 34 0.0820312 " clip-rule="nonzero"></path></clipPath><clipPath id="064bb3f6de"><path d="M 36 0.0820312 L 38 0.0820312 L 38 2 L 36 2 Z M 36 0.0820312 " clip-rule="nonzero"></path></clipPath><clipPath id="5ff901850c"><rect x="0" width="39" y="0" height="3"></rect></clipPath></defs><g clip-path="url(#e1326cd0ef)"><path fill="#a87f59" d="M 3.882812 35.40625 C 27.214844 18.050781 47.515625 41.277344 67.34375 30.773438 C 53.269531 45.628906 25.859375 21.867188 3.882812 35.40625 " fill-opacity="1" fill-rule="evenodd"></path></g><g clip-path="url(#1416a6286c)"><path fill="#a87f59" d="M 18.40625 24.597656 C 17.699219 22.847656 17.308594 20.9375 17.308594 18.933594 C 17.308594 15.003906 18.808594 11.425781 21.261719 8.734375 C 23.71875 11.425781 25.214844 15.003906 25.214844 18.933594 C 25.214844 20.9375 24.824219 22.847656 24.117188 24.597656 C 24.511719 23.347656 24.722656 22.011719 24.722656 20.632812 C 24.722656 17.191406 23.410156 14.058594 21.261719 11.703125 C 19.113281 14.058594 17.800781 17.191406 17.800781 20.632812 C 17.800781 22.011719 18.011719 23.347656 18.40625 24.597656 " fill-opacity="1" fill-rule="evenodd"></path></g><path fill="#a87f59" d="M 17.039062 26.496094 C 15.550781 25.332031 14.257812 23.871094 13.257812 22.136719 C 11.292969 18.734375 10.800781 14.886719 11.582031 11.328125 C 15.050781 12.429688 18.136719 14.78125 20.101562 18.183594 C 21.105469 19.917969 21.722656 21.769531 21.988281 23.640625 C 21.699219 22.359375 21.21875 21.097656 20.527344 19.902344 C 18.804688 16.921875 16.101562 14.863281 13.0625 13.898438 C 12.378906 17.011719 12.8125 20.382812 14.53125 23.363281 C 15.222656 24.558594 16.074219 25.605469 17.039062 26.496094 " fill-opacity="1" fill-rule="evenodd"></path><path fill="#a87f59" d="M 15.960938 28.679688 C 14.378906 28.363281 12.824219 27.789062 11.347656 26.9375 C 7.945312 24.972656 5.59375 21.886719 4.492188 18.414062 C 8.050781 17.632812 11.898438 18.128906 15.300781 20.09375 C 17.035156 21.09375 18.5 22.386719 19.660156 23.875 C 18.773438 22.90625 17.722656 22.058594 16.527344 21.367188 C 13.546875 19.648438 10.175781 19.214844 7.0625 19.898438 C 8.027344 22.9375 10.085938 25.640625 13.066406 27.359375 C 14.042969 27.925781 15.0625 28.351562 16.101562 28.644531 C 16.054688 28.65625 16.007812 28.667969 15.960938 28.679688 " fill-opacity="1" fill-rule="evenodd"></path><g clip-path="url(#1dfd3be240)"><path fill="#a87f59" d="M 8.390625 31.59375 C 5.933594 30.972656 3.714844 29.753906 1.898438 28.097656 C 4.589844 25.640625 8.167969 24.144531 12.097656 24.144531 C 14.101562 24.144531 16.015625 24.535156 17.765625 25.242188 C 16.511719 24.847656 15.179688 24.636719 13.796875 24.636719 C 10.355469 24.636719 7.222656 25.949219 4.867188 28.097656 C 6.246094 29.355469 7.894531 30.328125 9.714844 30.917969 C 9.273438 31.128906 8.832031 31.351562 8.390625 31.59375 " fill-opacity="1" fill-rule="evenodd"></path></g><path fill="#a87f59" d="M 20.539062 23.640625 C 20.800781 21.769531 21.417969 19.917969 22.421875 18.183594 C 24.386719 14.78125 27.472656 12.429688 30.945312 11.328125 C 31.726562 14.886719 31.230469 18.734375 29.265625 22.136719 C 28.265625 23.871094 26.972656 25.332031 25.484375 26.496094 C 26.449219 25.605469 27.300781 24.558594 27.992188 23.363281 C 29.710938 20.382812 30.144531 17.011719 29.460938 13.898438 C 26.421875 14.863281 23.71875 16.921875 22 19.902344 C 21.308594 21.097656 20.824219 22.359375 20.539062 23.640625 " fill-opacity="1" fill-rule="evenodd"></path><path fill="#a87f59" d="M 22.863281 23.875 C 24.027344 22.386719 25.488281 21.09375 27.222656 20.09375 C 30.625 18.128906 34.472656 17.632812 38.03125 18.414062 C 36.929688 21.886719 34.578125 24.972656 31.175781 26.9375 C 30.347656 27.414062 29.492188 27.804688 28.625 28.113281 C 28.445312 28.09375 28.265625 28.070312 28.085938 28.050781 C 28.550781 27.851562 29.007812 27.621094 29.457031 27.359375 C 32.4375 25.640625 34.496094 22.9375 35.460938 19.898438 C 32.347656 19.214844 28.976562 19.648438 25.996094 21.367188 C 24.800781 22.058594 23.753906 22.90625 22.863281 23.875 " fill-opacity="1" fill-rule="evenodd"></path><path fill="#a87f59" d="M 24.761719 25.242188 C 26.511719 24.535156 28.421875 24.144531 30.425781 24.144531 C 34.355469 24.144531 37.933594 25.640625 40.625 28.097656 C 39.890625 28.769531 39.085938 29.367188 38.230469 29.882812 C 37.488281 29.714844 36.746094 29.546875 35.996094 29.386719 C 36.585938 29 37.140625 28.570312 37.65625 28.097656 C 35.300781 25.949219 32.167969 24.636719 28.726562 24.636719 C 27.347656 24.636719 26.011719 24.847656 24.761719 25.242188 " fill-opacity="1" fill-rule="evenodd"></path><path fill="#a87f59" d="M 21.261719 24.472656 C 23.171875 24.472656 24.738281 25.953125 24.875 27.828125 C 24.664062 27.820312 24.453125 27.816406 24.242188 27.8125 C 24.097656 26.292969 22.820312 25.101562 21.261719 25.101562 C 19.609375 25.101562 18.269531 26.445312 18.269531 28.097656 C 18.269531 28.136719 18.269531 28.179688 18.269531 28.21875 C 18.0625 28.25 17.855469 28.285156 17.644531 28.320312 C 17.640625 28.246094 17.636719 28.171875 17.636719 28.097656 C 17.636719 26.097656 19.261719 24.472656 21.261719 24.472656 " fill-opacity="1" fill-rule="evenodd"></path><path fill="#a87f59" d="M 6.574219 35.152344 C 19.683594 28.664062 33.183594 35.691406 46.859375 36.015625 C 33.199219 36.816406 19.570312 31.210938 6.574219 35.152344 " fill-opacity="1" fill-rule="evenodd"></path><g transform="matrix(1, 0, 0, 1, 2, 42)"><g clip-path="url(#5ff901850c)"><g clip-path="url(#d8221d8f77)"><g fill="#ffffff" fill-opacity="1"><g transform="translate(0.857458, 1.713065)"><g><path d="M 0.09375 0 L 0.09375 -1.109375 L 0.515625 -1.109375 C 0.617188 -1.109375 0.703125 -1.082031 0.765625 -1.03125 C 0.835938 -0.976562 0.890625 -0.910156 0.921875 -0.828125 C 0.960938 -0.742188 0.984375 -0.648438 0.984375 -0.546875 C 0.984375 -0.441406 0.960938 -0.347656 0.921875 -0.265625 C 0.890625 -0.179688 0.835938 -0.113281 0.765625 -0.0625 C 0.703125 -0.0195312 0.617188 0 0.515625 0 Z M 0.203125 -0.09375 L 0.5 -0.09375 C 0.625 -0.09375 0.71875 -0.128906 0.78125 -0.203125 C 0.84375 -0.285156 0.875 -0.398438 0.875 -0.546875 C 0.875 -0.691406 0.84375 -0.804688 0.78125 -0.890625 C 0.71875 -0.972656 0.625 -1.015625 0.5 -1.015625 L 0.203125 -1.015625 Z M 0.203125 -0.09375 "></path></g></g></g></g><g clip-path="url(#be3ee3ebb8)"><g fill="#ffffff" fill-opacity="1"><g transform="translate(3.129281, 1.713065)"><g><path d="M 0.09375 0 L 0.09375 -1.109375 L 0.203125 -1.109375 L 0.203125 0 Z M 0.09375 0 "></path></g></g></g></g><g clip-path="url(#fd38ace234)"><g fill="#ffffff" fill-opacity="1"><g transform="translate(4.672758, 1.713065)"><g><path d="M 0.484375 0.015625 C 0.398438 0.015625 0.320312 0.00390625 0.25 -0.015625 C 0.1875 -0.046875 0.132812 -0.0859375 0.09375 -0.140625 C 0.0507812 -0.203125 0.03125 -0.273438 0.03125 -0.359375 L 0.140625 -0.359375 C 0.140625 -0.265625 0.171875 -0.191406 0.234375 -0.140625 C 0.304688 -0.0976562 0.390625 -0.078125 0.484375 -0.078125 C 0.578125 -0.078125 0.644531 -0.0976562 0.6875 -0.140625 C 0.738281 -0.179688 0.765625 -0.234375 0.765625 -0.296875 C 0.765625 -0.347656 0.75 -0.390625 0.71875 -0.421875 C 0.695312 -0.453125 0.660156 -0.472656 0.609375 -0.484375 C 0.554688 -0.503906 0.492188 -0.523438 0.421875 -0.546875 C 0.347656 -0.554688 0.285156 -0.570312 0.234375 -0.59375 C 0.179688 -0.613281 0.140625 -0.644531 0.109375 -0.6875 C 0.0859375 -0.726562 0.078125 -0.78125 0.078125 -0.84375 C 0.078125 -0.90625 0.09375 -0.957031 0.125 -1 C 0.15625 -1.039062 0.195312 -1.070312 0.25 -1.09375 C 0.3125 -1.113281 0.375 -1.125 0.4375 -1.125 C 0.519531 -1.125 0.585938 -1.109375 0.640625 -1.078125 C 0.703125 -1.054688 0.75 -1.019531 0.78125 -0.96875 C 0.820312 -0.925781 0.84375 -0.867188 0.84375 -0.796875 L 0.734375 -0.796875 C 0.734375 -0.867188 0.707031 -0.925781 0.65625 -0.96875 C 0.601562 -1.007812 0.53125 -1.03125 0.4375 -1.03125 C 0.363281 -1.03125 0.300781 -1.015625 0.25 -0.984375 C 0.195312 -0.953125 0.171875 -0.90625 0.171875 -0.84375 C 0.171875 -0.789062 0.179688 -0.75 0.203125 -0.71875 C 0.234375 -0.695312 0.269531 -0.675781 0.3125 -0.65625 C 0.363281 -0.644531 0.421875 -0.632812 0.484375 -0.625 C 0.566406 -0.613281 0.632812 -0.59375 0.6875 -0.5625 C 0.75 -0.539062 0.796875 -0.507812 0.828125 -0.46875 C 0.859375 -0.425781 0.875 -0.367188 0.875 -0.296875 C 0.875 -0.234375 0.859375 -0.175781 0.828125 -0.125 C 0.796875 -0.0820312 0.75 -0.046875 0.6875 -0.015625 C 0.632812 0.00390625 0.566406 0.015625 0.484375 0.015625 Z M 0.484375 0.015625 "></path></g></g></g></g><g clip-path="url(#1fecdd323f)"><g fill="#ffffff" fill-opacity="1"><g transform="translate(6.843854, 1.713065)"><g><path d="M 0.5625 0.015625 C 0.457031 0.015625 0.363281 -0.00390625 0.28125 -0.046875 C 0.207031 -0.0976562 0.148438 -0.164062 0.109375 -0.25 C 0.0664062 -0.34375 0.046875 -0.441406 0.046875 -0.546875 C 0.046875 -0.660156 0.0664062 -0.757812 0.109375 -0.84375 C 0.148438 -0.9375 0.207031 -1.003906 0.28125 -1.046875 C 0.363281 -1.097656 0.457031 -1.125 0.5625 -1.125 C 0.644531 -1.125 0.71875 -1.109375 0.78125 -1.078125 C 0.84375 -1.046875 0.890625 -1 0.921875 -0.9375 C 0.960938 -0.882812 0.988281 -0.828125 1 -0.765625 L 0.890625 -0.765625 C 0.878906 -0.816406 0.859375 -0.863281 0.828125 -0.90625 C 0.804688 -0.945312 0.769531 -0.976562 0.71875 -1 C 0.675781 -1.019531 0.625 -1.03125 0.5625 -1.03125 C 0.476562 -1.03125 0.40625 -1.007812 0.34375 -0.96875 C 0.28125 -0.925781 0.234375 -0.867188 0.203125 -0.796875 C 0.171875 -0.722656 0.15625 -0.640625 0.15625 -0.546875 C 0.15625 -0.453125 0.171875 -0.367188 0.203125 -0.296875 C 0.234375 -0.222656 0.28125 -0.164062 0.34375 -0.125 C 0.40625 -0.09375 0.476562 -0.078125 0.5625 -0.078125 C 0.625 -0.078125 0.679688 -0.0859375 0.734375 -0.109375 C 0.785156 -0.140625 0.820312 -0.179688 0.84375 -0.234375 C 0.875 -0.285156 0.894531 -0.335938 0.90625 -0.390625 L 1.015625 -0.390625 C 1.003906 -0.304688 0.976562 -0.234375 0.9375 -0.171875 C 0.894531 -0.109375 0.84375 -0.0625 0.78125 -0.03125 C 0.71875 0 0.644531 0.015625 0.5625 0.015625 Z M 0.5625 0.015625 "></path></g></g></g></g><g clip-path="url(#be3d80654d)"><g fill="#ffffff" fill-opacity="1"><g transform="translate(9.138923, 1.713065)"><g><path d="M 0.5625 0.015625 C 0.457031 0.015625 0.363281 -0.00390625 0.28125 -0.046875 C 0.207031 -0.0976562 0.148438 -0.164062 0.109375 -0.25 C 0.0664062 -0.34375 0.046875 -0.441406 0.046875 -0.546875 C 0.046875 -0.660156 0.0664062 -0.757812 0.109375 -0.84375 C 0.148438 -0.9375 0.207031 -1.003906 0.28125 -1.046875 C 0.363281 -1.097656 0.457031 -1.125 0.5625 -1.125 C 0.675781 -1.125 0.769531 -1.097656 0.84375 -1.046875 C 0.914062 -1.003906 0.972656 -0.9375 1.015625 -0.84375 C 1.066406 -0.757812 1.09375 -0.660156 1.09375 -0.546875 C 1.09375 -0.441406 1.066406 -0.34375 1.015625 -0.25 C 0.972656 -0.164062 0.914062 -0.0976562 0.84375 -0.046875 C 0.769531 -0.00390625 0.675781 0.015625 0.5625 0.015625 Z M 0.5625 -0.078125 C 0.644531 -0.078125 0.71875 -0.09375 0.78125 -0.125 C 0.84375 -0.164062 0.890625 -0.222656 0.921875 -0.296875 C 0.960938 -0.367188 0.984375 -0.453125 0.984375 -0.546875 C 0.984375 -0.648438 0.960938 -0.738281 0.921875 -0.8125 C 0.890625 -0.882812 0.84375 -0.9375 0.78125 -0.96875 C 0.71875 -1.007812 0.644531 -1.03125 0.5625 -1.03125 C 0.488281 -1.03125 0.421875 -1.007812 0.359375 -0.96875 C 0.296875 -0.9375 0.242188 -0.882812 0.203125 -0.8125 C 0.171875 -0.738281 0.15625 -0.648438 0.15625 -0.546875 C 0.15625 -0.453125 0.171875 -0.367188 0.203125 -0.296875 C 0.242188 -0.222656 0.296875 -0.164062 0.359375 -0.125 C 0.421875 -0.09375 0.488281 -0.078125 0.5625 -0.078125 Z M 0.5625 -0.078125 "></path></g></g></g></g><g clip-path="url(#2bbada1ba6)"><g fill="#ffffff" fill-opacity="1"><g transform="translate(11.519225, 1.713065)"><g><path d="M 0.421875 0 L 0.015625 -1.109375 L 0.125 -1.109375 L 0.46875 -0.15625 L 0.8125 -1.109375 L 0.921875 -1.109375 L 0.515625 0 Z M 0.421875 0 "></path></g></g></g></g><g clip-path="url(#0a032370d6)"><g fill="#ffffff" fill-opacity="1"><g transform="translate(13.698068, 1.713065)"><g><path d="M 0.09375 0 L 0.09375 -1.109375 L 0.84375 -1.109375 L 0.84375 -1.015625 L 0.203125 -1.015625 L 0.203125 -0.625 L 0.78125 -0.625 L 0.78125 -0.53125 L 0.203125 -0.53125 L 0.203125 -0.09375 L 0.859375 -0.09375 L 0.859375 0 Z M 0.09375 0 "></path></g></g></g></g><g clip-path="url(#fb9907fc87)"><g fill="#ffffff" fill-opacity="1"><g transform="translate(15.858316, 1.713065)"><g><path d="M 0.09375 0 L 0.09375 -1.109375 L 0.546875 -1.109375 C 0.648438 -1.109375 0.734375 -1.082031 0.796875 -1.03125 C 0.867188 -0.976562 0.90625 -0.898438 0.90625 -0.796875 C 0.90625 -0.710938 0.878906 -0.644531 0.828125 -0.59375 C 0.785156 -0.550781 0.726562 -0.523438 0.65625 -0.515625 C 0.707031 -0.503906 0.742188 -0.484375 0.765625 -0.453125 C 0.796875 -0.429688 0.816406 -0.398438 0.828125 -0.359375 C 0.847656 -0.328125 0.859375 -0.289062 0.859375 -0.25 C 0.867188 -0.207031 0.875 -0.171875 0.875 -0.140625 C 0.882812 -0.109375 0.890625 -0.078125 0.890625 -0.046875 C 0.898438 -0.0234375 0.910156 -0.015625 0.921875 -0.015625 L 0.921875 0 L 0.796875 0 C 0.796875 -0.0078125 0.789062 -0.0234375 0.78125 -0.046875 C 0.78125 -0.078125 0.773438 -0.109375 0.765625 -0.140625 C 0.765625 -0.171875 0.757812 -0.207031 0.75 -0.25 C 0.75 -0.289062 0.738281 -0.328125 0.71875 -0.359375 C 0.707031 -0.390625 0.6875 -0.414062 0.65625 -0.4375 C 0.625 -0.457031 0.582031 -0.46875 0.53125 -0.46875 L 0.203125 -0.46875 L 0.203125 0 Z M 0.203125 -0.546875 L 0.515625 -0.546875 C 0.597656 -0.546875 0.664062 -0.566406 0.71875 -0.609375 C 0.769531 -0.648438 0.796875 -0.707031 0.796875 -0.78125 C 0.796875 -0.863281 0.769531 -0.921875 0.71875 -0.953125 C 0.675781 -0.992188 0.609375 -1.015625 0.515625 -1.015625 L 0.203125 -1.015625 Z M 0.203125 -0.546875 "></path></g></g></g></g><g fill="#ffffff" fill-opacity="1"><g transform="translate(18.061954, 1.713065)"><g></g></g></g><g clip-path="url(#feff8db345)"><g fill="#ffffff" fill-opacity="1"><g transform="translate(19.634875, 1.713065)"><g><path d="M 0.40625 0 L 0.40625 -1.015625 L 0.03125 -1.015625 L 0.03125 -1.109375 L 0.890625 -1.109375 L 0.890625 -1.015625 L 0.515625 -1.015625 L 0.515625 0 Z M 0.40625 0 "></path></g></g></g></g><g clip-path="url(#e4459cdca0)"><g fill="#ffffff" fill-opacity="1"><g transform="translate(21.795123, 1.713065)"><g><path d="M 0.09375 0 L 0.09375 -1.109375 L 0.203125 -1.109375 L 0.203125 -0.625 L 0.828125 -0.625 L 0.828125 -1.109375 L 0.9375 -1.109375 L 0.9375 0 L 0.828125 0 L 0.828125 -0.53125 L 0.203125 -0.53125 L 0.203125 0 Z M 0.09375 0 "></path></g></g></g></g><g clip-path="url(#a10d4f46d8)"><g fill="#ffffff" fill-opacity="1"><g transform="translate(24.063848, 1.713065)"><g><path d="M 0.09375 0 L 0.09375 -1.109375 L 0.84375 -1.109375 L 0.84375 -1.015625 L 0.203125 -1.015625 L 0.203125 -0.625 L 0.78125 -0.625 L 0.78125 -0.53125 L 0.203125 -0.53125 L 0.203125 -0.09375 L 0.859375 -0.09375 L 0.859375 0 Z M 0.09375 0 "></path></g></g></g></g><g fill="#ffffff" fill-opacity="1"><g transform="translate(26.224096, 1.713065)"><g></g></g></g><g clip-path="url(#8364bcb077)"><g fill="#ffffff" fill-opacity="1"><g transform="translate(27.797017, 1.713065)"><g><path d="M 0.09375 0 L 0.09375 -1.109375 L 0.515625 -1.109375 C 0.585938 -1.109375 0.648438 -1.097656 0.703125 -1.078125 C 0.753906 -1.054688 0.796875 -1.019531 0.828125 -0.96875 C 0.859375 -0.925781 0.875 -0.863281 0.875 -0.78125 C 0.875 -0.707031 0.859375 -0.644531 0.828125 -0.59375 C 0.796875 -0.550781 0.753906 -0.515625 0.703125 -0.484375 C 0.648438 -0.460938 0.585938 -0.453125 0.515625 -0.453125 L 0.203125 -0.453125 L 0.203125 0 Z M 0.203125 -0.546875 L 0.515625 -0.546875 C 0.597656 -0.546875 0.660156 -0.5625 0.703125 -0.59375 C 0.742188 -0.632812 0.765625 -0.695312 0.765625 -0.78125 C 0.765625 -0.863281 0.742188 -0.921875 0.703125 -0.953125 C 0.660156 -0.992188 0.597656 -1.015625 0.515625 -1.015625 L 0.203125 -1.015625 Z M 0.203125 -0.546875 "></path></g></g></g></g><g clip-path="url(#40bb912865)"><g fill="#ffffff" fill-opacity="1"><g transform="translate(29.949516, 1.713065)"><g><path d="M 0.09375 0 L 0.09375 -1.109375 L 0.84375 -1.109375 L 0.84375 -1.015625 L 0.203125 -1.015625 L 0.203125 -0.625 L 0.78125 -0.625 L 0.78125 -0.53125 L 0.203125 -0.53125 L 0.203125 -0.09375 L 0.859375 -0.09375 L 0.859375 0 Z M 0.09375 0 "></path></g></g></g></g><g clip-path="url(#43cf3dd140)"><g fill="#ffffff" fill-opacity="1"><g transform="translate(32.109764, 1.713065)"><g><path d="M 0.015625 0 L 0.421875 -1.109375 L 0.546875 -1.109375 L 0.953125 0 L 0.859375 0 L 0.734375 -0.34375 L 0.25 -0.34375 L 0.109375 0 Z M 0.265625 -0.421875 L 0.703125 -0.421875 L 0.484375 -1 Z M 0.265625 -0.421875 "></path></g></g></g></g><g clip-path="url(#355739990a)"><g fill="#ffffff" fill-opacity="1"><g transform="translate(34.321151, 1.713065)"><g><path d="M 0.5625 0.015625 C 0.457031 0.015625 0.363281 -0.00390625 0.28125 -0.046875 C 0.207031 -0.0976562 0.148438 -0.164062 0.109375 -0.25 C 0.0664062 -0.34375 0.046875 -0.441406 0.046875 -0.546875 C 0.046875 -0.660156 0.0664062 -0.757812 0.109375 -0.84375 C 0.148438 -0.9375 0.207031 -1.003906 0.28125 -1.046875 C 0.363281 -1.097656 0.457031 -1.125 0.5625 -1.125 C 0.644531 -1.125 0.71875 -1.109375 0.78125 -1.078125 C 0.84375 -1.046875 0.890625 -1 0.921875 -0.9375 C 0.960938 -0.882812 0.988281 -0.828125 1 -0.765625 L 0.890625 -0.765625 C 0.878906 -0.816406 0.859375 -0.863281 0.828125 -0.90625 C 0.804688 -0.945312 0.769531 -0.976562 0.71875 -1 C 0.675781 -1.019531 0.625 -1.03125 0.5625 -1.03125 C 0.476562 -1.03125 0.40625 -1.007812 0.34375 -0.96875 C 0.28125 -0.925781 0.234375 -0.867188 0.203125 -0.796875 C 0.171875 -0.722656 0.15625 -0.640625 0.15625 -0.546875 C 0.15625 -0.453125 0.171875 -0.367188 0.203125 -0.296875 C 0.234375 -0.222656 0.28125 -0.164062 0.34375 -0.125 C 0.40625 -0.09375 0.476562 -0.078125 0.5625 -0.078125 C 0.625 -0.078125 0.679688 -0.0859375 0.734375 -0.109375 C 0.785156 -0.140625 0.820312 -0.179688 0.84375 -0.234375 C 0.875 -0.285156 0.894531 -0.335938 0.90625 -0.390625 L 1.015625 -0.390625 C 1.003906 -0.304688 0.976562 -0.234375 0.9375 -0.171875 C 0.894531 -0.109375 0.84375 -0.0625 0.78125 -0.03125 C 0.71875 0 0.644531 0.015625 0.5625 0.015625 Z M 0.5625 0.015625 "></path></g></g></g></g><g clip-path="url(#064bb3f6de)"><g fill="#ffffff" fill-opacity="1"><g transform="translate(36.61622, 1.713065)"><g><path d="M 0.09375 0 L 0.09375 -1.109375 L 0.84375 -1.109375 L 0.84375 -1.015625 L 0.203125 -1.015625 L 0.203125 -0.625 L 0.78125 -0.625 L 0.78125 -0.53125 L 0.203125 -0.53125 L 0.203125 -0.09375 L 0.859375 -0.09375 L 0.859375 0 Z M 0.09375 0 "></path></g></g></g></g></g></g></svg>